<svg fill="none" height="44" viewBox="0 0 240 44" width="240" xmlns="http://www.w3.org/2000/svg"><g fill="#000"><path d="m109.234.391968 6.078 16.566032h-4.411l-.785-2.6463h-6.077l-.784 2.6466h-4.4111l6.1761-16.565977h4.214zm-2.254 4.018912c-.196.88231-.491 1.76462-.686 2.54886-.393 1.27425-.981 3.23466-1.373 4.41116h4.215l-2.157-6.95967zm12.841 1.56847c.784-.68581 1.667-1.17618 3.529-1.37233v3.23503l-1.176.19579c-1.765.29422-2.255.58845-2.255 2.15696v6.9597h-3.627v-12.4494h3.529zm4.803-5.587382h3.529v2.842732h-3.529zm0 4.313132h3.529v12.3513h-3.529z"/><path d="m130.408 4.70532h10.489v2.74471l-6.568 6.66567h6.568v2.8428h-11.175v-2.7447l6.665-6.76377h-5.881v-2.74471z"/><path d="m154.816 10.8805c0 3.137-1.764 6.4697-6.568 6.4697-3.43 0-6.567-1.9604-6.567-6.4697 0-3.72464 2.352-6.76352 7.057-6.4693 4.902.1958 6.078 4.21506 6.078 6.4693zm-9.018-2.45039c-.491.68581-.588 1.56848-.588 2.35239 0 1.9607.98 3.6269 2.94 3.6269 1.961 0 2.941-1.5681 2.941-3.5285 0-1.37268-.294-2.45079-.98-3.03888-.784-.68616-1.569-.68616-2.157-.68616-.98.19579-1.666.49001-2.156 1.27425zm13.821-2.54886c.392-.39194.588-.68581 1.177-.98003.588-.19615 1.372-.49037 2.254-.49037.686 0 1.569.09807 2.157.49037 1.274.68581 1.666 1.76427 1.666 3.72504v8.43014h-3.627v-6.9597c0-1.0785 0-1.47044-.196-1.86273-.294-.68581-.883-.98004-1.667-.98004-1.862 0-1.862 1.56812-1.862 3.03857v6.6658h-3.627v-12.15515h3.627zm9.117 2.35272c.098-.88232.196-1.86235 1.274-2.74466 1.176-.88231 2.549-1.07811 4.019-1.07811s5.195.39195 5.195 3.52854v7.15586c0 1.2746.098 1.4704.393 1.9608h-3.529v-1.1762c-.883.6858-1.961 1.47-3.725 1.47-2.843 0-4.019-2.0584-4.019-3.7246 0-1.9608 1.568-3.137 2.548-3.5289.981-.39233 3.333-.88235 4.803-1.17622v-.68651c0-.58809-.098-1.47041-1.372-1.47041-1.568 0-1.764.98039-1.862 1.47041zm4.509 3.72503c-.589.1962-1.569.5881-1.569 1.5685 0 .5881.491 1.2742 1.373 1.2742.49 0 .882-.1961 1.274-.3923 1.176-.7838 1.274-1.8619 1.274-3.1366l-2.352.6859zm13.919.0981c.392.4904.785.8823 1.569 1.2742 1.078.5881 2.254.7843 3.234.7843 1.667 0 3.039-.7843 3.039-1.9604 0-1.2747-1.666-1.5685-2.94-1.6666-.883-.0981-1.863-.1961-2.745-.3919-.981-.19618-4.509-.98078-4.509-4.50932 0-4.31313 3.823-5.58738 6.666-5.58738 3.823 0 5.881 1.86234 7.352 3.1366l-3.039 2.15692c-.49-.49037-.98-.98074-1.667-1.37269-.588-.29386-1.666-.6858-2.744-.6858-1.667 0-2.451.98003-2.451 1.76426 0 1.27426 1.373 1.47041 2.157 1.56813 1.764.19614 4.117.68651 5.097.98074 1.863.68581 2.843 2.15621 2.843 4.11664 0 1.1762-.49 2.5488-1.275 3.5289-1.47 1.7646-3.92 2.2546-6.273 2.2546-4.705 0-6.568-2.1565-7.548-3.3331l3.235-2.0581zm13.822-10.88057h3.627v3.82241h2.352v2.25464h-2.352v5.48932c0 .7842 0 1.3723.98 1.3723h1.274v2.8427c-.784.0981-1.274.1962-1.862.1962-1.274 0-2.647-.0981-3.431-1.1762-.49-.6865-.49-1.5688-.49-2.745v-5.88125h-1.765v-2.25428h1.765v-3.92119h-.098zm7.058 7.05744c.098-.88232.196-1.86235 1.274-2.74466 1.176-.88231 2.549-1.07811 4.019-1.07811s5.195.39195 5.195 3.52854v7.15586c0 1.2746.098 1.4704.392 1.9608h-3.528v-1.1762c-.882.6858-1.961 1.47-3.725 1.47-2.843 0-4.019-2.0584-4.019-3.7246 0-1.9608 1.568-3.137 2.548-3.5289.98-.39233 3.333-.88235 4.804-1.17622v-.68651c0-.58809-.099-1.47041-1.373-1.47041-1.568 0-1.764.98039-1.863 1.47041zm4.607 3.72503c-.588.1962-1.569.5881-1.569 1.5685 0 .5881.491 1.2742 1.373 1.2742.49 0 .882-.1961 1.274-.3923 1.176-.7838 1.275-1.8619 1.275-3.1366l-2.353.6859zm8.332-10.78282h3.627v3.82311h2.353v2.25464h-2.353v5.48927c0 .7843 0 1.3724.98 1.3724h1.274v2.8427c-.784.0981-1.274.1961-1.862.1961-1.274 0-2.646-.098-3.431-1.1761-.49-.6865-.49-1.5689-.49-2.745v-5.88165h-1.764v-2.25428h1.764v-3.92119zm18.821 12.74322c-.392.5881-.882 1.2743-1.471 1.8627-1.078.9801-2.646 1.7643-4.607 1.7643-3.627 0-6.175-2.3524-6.175-6.3716 0-2.94084 1.47-6.7636 6.273-6.7636.686 0 2.843.09772 4.411 1.76427 1.569 1.76463 1.667 4.11703 1.765 5.48933h-8.822c0 1.5685.882 3.0389 2.842 3.0389 1.961 0 2.647-1.2743 3.137-2.1566zm-3.627-4.60662c-.098-.49037-.196-1.17618-.686-1.76462-.491-.49037-1.176-.68581-1.765-.68581-.882 0-1.47.39194-1.862.78388-.491.58809-.588 1.07811-.686 1.66655z"/><path d="m113.307 22.5267v9.3128c0 1.5685 0 3.2347-.981 4.7051-1.764 2.8427-5.489 3.0389-6.175 3.0389-1.275 0-2.745-.2943-3.823-.8824-3.2351-1.6665-3.2351-4.607-3.1371-6.8616v-9.3128h4.2151v10.3906c0 .8823 0 1.5684.294 2.0588.491.882 1.667 1.1762 2.647 1.1762 2.843 0 2.843-1.9604 2.843-3.235v-10.2925zm5.489 5.4893c.392-.3919.588-.6858 1.176-.98.588-.1961 1.373-.4904 2.255-.4904.686 0 1.568.0981 2.157.4904 1.274.6858 1.666 1.7643 1.666 3.7247v8.4305h-3.627v-6.9601c0-1.0781 0-1.4704-.196-1.8623-.294-.6862-.882-.9804-1.667-.9804-1.862 0-1.862 1.5684-1.862 3.0388v6.6659h-3.627v-12.2532h3.627v1.1761zm9.214-5.4893h3.529v2.8428h-3.528v-2.8428zm0 4.3132h3.529v12.3513h-3.528v-12.3513zm4.608 0h3.823c1.47 5.4893 1.764 6.5677 2.156 8.9201.491-2.7447.588-3.0385 1.274-5.8813l.785-3.0388h3.725l-4.019 12.2532h-3.823zm24.016 9.2143c-.392.5881-.882 1.2743-1.47 1.8623-1.079.9804-2.647 1.7647-4.608 1.7647-3.627 0-6.176-2.3524-6.176-6.3716 0-2.9408 1.471-6.764 6.274-6.764.686 0 2.843.0981 4.412 1.7647 1.568 1.7642 1.666 4.1169 1.764 5.4893h-8.822c0 1.5684.882 3.0388 2.843 3.0388 1.96 0 2.646-1.2742 3.136-2.1565zm-3.627-4.607c-.098-.4904-.196-1.1762-.686-1.7646-.491-.4904-1.176-.6862-1.765-.6862-.882 0-1.47.392-1.862.7843-.49.5881-.589 1.0781-.686 1.6665zm8.724-3.3331c.784-.6858 1.667-1.1762 3.529-1.3723v3.235l-1.176.1958c-1.765.2942-2.255.5881-2.255 2.1569v6.9594h-3.627v-12.449h3.529zm5.784 6.8616c.98.9808 2.254 1.6666 3.528 1.6666.883 0 2.157-.2939 2.157-1.1762 0-.3923-.294-.5881-.49-.6861-.588-.2943-1.372-.3923-2.059-.4904-.588-.0977-1.078-.1958-1.666-.392-.784-.1961-1.47-.4903-2.059-1.0781-.588-.5884-.882-1.3723-.882-2.3527 0-2.0585 1.765-4.117 5.195-4.117 2.941 0 4.608 1.2743 5.49 1.8624l-2.255 2.0585c-1.176-.8823-2.254-1.1762-3.038-1.1762-1.373 0-1.765.5881-1.765.8823 0 .6858.784.882 1.961 1.0781 2.45.4904 5.293 1.0785 5.293 4.0189 0 2.9408-2.941 4.3132-5.784 4.3132-3.43 0-5.195-1.6666-5.979-2.3524l2.353-2.0585zm10.586-12.449h3.529v2.8428h-3.528v-2.8428zm0 4.3132h3.529v12.3513h-3.528v-12.3513zm6.666-3.5289h3.627v3.8231h2.352v2.2543h-2.352v5.4896c0 .7843 0 1.3724.98 1.3724h1.275v2.8427c-.785.0981-1.275.1958-1.863.1958-1.274 0-2.647-.0977-3.431-1.1762-.49-.6858-.49-1.5685-.49-2.7447v-5.8816h-1.862v-2.2546h1.764v-3.9205zm18.527 3.5289-4.313 13.2332c-.295.7843-.588 1.5685-1.176 2.2547-.883.8823-1.667.9803-2.647.9803h-2.647v-2.8427h1.274c.588 0 1.471 0 1.471-.8823 0-.2942-.098-.5881-.196-.8823l-3.627-11.8609h3.823l2.058 8.8224 2.059-8.8224z"/><path d="m89.0923 37.0239c-1.322-1.3954-1.2487-2.8646-1.2487-2.8646v-33.639097h-12.7065v26.882297c-.1467 2.5706-2.6438 3.1582-4.0395 3.1582-1.983-.0735-3.0847-1.1752-3.0847-3.0847v-26.955797h-12.4131-8.7404c-6.7571 0-13.147 1.028517-15.3505 6.683897l-1.2487-4.99455c-.2937-1.02825-1.3952-1.689347-2.4237-1.689347h-22.10737c-.29394 0-.44064.073484-.29394.293938 0 0 .58761.587609 1.68935 1.836049 1.54237 1.76283.95476 4.03978.95476 4.03978l-8.0793 32.46363h11.8251l1.6894-7.1242h11.3845l1.7626 7.1245h15.4975c6.3899 0 11.5312-.6611 14.1021-4.6274 1.9095 3.5991 6.0225 5.362 13.2938 4.7009 2.4974-.2205 4.9948-1.3957 6.0962-3.3052l.5142 1.5424c.4409.9547 1.3222 1.6158 2.4974 1.6158h11.8986c.2937.0735.4407 0 .2202-.2204 0 0-.6611-.7344-1.6893-1.8361zm-59.9333-29.52613 2.13 1.24871c-.0735.36742-.147.80779-.2205 1.17522l-2.2035-2.05651c-.2201-.22045.0735-.51412.294-.36742zm-2.13 2.64413 3.966 1.6161c0 .4407 0 1.1015.0735 1.6156l-4.26-2.7908c-.2201-.147-.0734-.5141.2205-.4409zm-1.6161 3.085 5.8761 1.3219c.1467.7346.4406 1.4689.7343 2.0565l-6.7571-2.9378c-.2205-.1469-.1473-.5141.1467-.4406zm-10.1353 11.7517 3.8925-15.86497 3.9661 15.86497zm32.5374 5.2882c-1.1017 1.0282-3.2317 1.5424-5.5087 1.3219-1.3222-.147-2.6441-.8078-2.6441-.8078l-4.7741 5.8759c-.2204.2201-.5876-.0001-.4406-.294l3.2317-6.5369c.0735-.0732-.0735-.1467-.147-.0732l-5.8023 5.0677c-.2205.2205-.5142-.0735-.3675-.3674l4.4805-5.949c.0735-.0735 0-.147-.0735-.0735l-6.6836 4.0395c-.2205.147-.5142-.2202-.294-.3672l5.5822-5.2147c.0735-.0735 0-.147-.0735-.147l-7.4182 3.0113c-.2937.0735-.4407-.2937-.2205-.4406l6.537-4.26c.0734-.0732 0-.1467-.0735-.1467l-7.7119 1.836c-.2939.0735-.3674-.2936-.147-.4406l7.2713-3.1582c.0735 0 .0735-.147 0-.147l-8.0791.5141c-.2939 0-.3674-.3671-.0735-.4406l7.7854-1.983c.0735 0 .0735-.147 0-.147l-8.0793-.7346c-.2937 0-.2937-.4406 0-.4406l8.0793-.7343c.0735 0 .0735-.0735 0-.147l-7.7856-1.983c-.294-.0735-.2205-.4407.0735-.4407l7.7118.4407c1.9831 3.5988 6.1696 5.0677 9.8422 6.3899 3.5989 1.2485 6.6836 2.2767 6.6836 5.0678 0 .7346-.2934 1.3957-.881 1.9098zm11.0906 4.5536-1.8363-1.6158s.2939-.6611.4406-1.1018l1.7628 2.3505c.147.2202-.1467.5138-.3671.3671zm2.6438-2.3504-3.6721-2.2032s.1467-1.1017.1467-1.6894l3.8193 3.5254c.2205.2205-.0737.5139-.2939.3672zm2.13-2.7173-5.5819-2.277s0-1.3222-.1467-2.0565l5.9491 3.8926c.2204.1469.0732.5141-.2205.4409zm2.938-9.6952-8.079.7343c-.0735 0-.0735.0735 0 .147l7.7851 1.983c.2939.0735.2205.4409-.0732.4409l-8.0793-.5141c-.0735 0-.0735.0732 0 .1467l7.2712 3.1582c.294.147.147.5141-.1467.4407l-7.4182-1.5424s-.2939-3.305-4.1865-6.0225c-1.9833-1.3957-4.4804-2.3505-6.6104-3.1583-1.6893-.6611-3.2317-1.2487-4.3334-1.9098-1.2487-.8078-1.8361-1.6893-1.8361-2.7176 0-.7343.2202-1.39539.7343-1.90951.8813-.88129 2.4239-1.24871 4.5539-1.24871 2.2767 0 4.7006 1.02825 4.7006 1.02825l4.8476-6.02253c.2202-.22046.5876 0 .4407.29367l-3.3055 6.61041c0 .07352.0735.14672.0735.07352l5.8758-5.06807c.2205-.22046.5141.07348.3674.36742l-4.5539 6.02255c-.0735.0735 0 .147.0735.0735l6.7571-4.11303c.2205-.14697.5141.22019.2937.36715l-5.5819 5.21478c-.0735.0734 0 .1469.0735.0734l7.4182-3.01122c.2937-.07349.4406.29372.2202.44062l-6.5367 4.26c-.0735.0735 0 .147.0735.147l7.8589-1.7629c.2936-.0735.3674.2937.1469.4407l-7.2712 3.1582c-.0738 0-.0738.147 0 .147l8.079-.5141c.2937 0 .3674.3674.0735.4406l-7.7854 1.983c-.0734 0-.0734.147 0 .147l8.0791.7346c.2939 0 .2942.4406.0002.4406z"/></g></svg>