<svg fill="none" height="158" viewBox="0 0 237 158" width="237" xmlns="http://www.w3.org/2000/svg"><g fill="#000"><path d="m147.516 152.776c-2.59 4.047-8.659 4.194-11.471.294-2.221-3.164-2.147-8.02.148-11.036 2.886-3.753 8.807-3.458 11.323.515.962 1.545 1.48 3.311 1.406 5.003.074 1.987-.37 3.679-1.406 5.224zm3.848-6.181c-.222-2.795-1.332-5.224-3.552-7.137-3.552-2.869-9.399-2.722-12.655.442-2.221 2.134-3.035 4.782-3.183 8.02.074.441.074 1.177.222 1.913.814 4.782 4.663 8.535 10.435 8.02 2.813-.221 5.107-1.472 6.735-3.679 1.702-2.281 2.22-4.856 1.998-7.579zm-3.848 6.181c-2.59 4.047-8.659 4.194-11.471.294-2.221-3.164-2.147-8.02.148-11.036 2.886-3.753 8.807-3.458 11.323.515.962 1.545 1.48 3.311 1.406 5.003.074 1.987-.37 3.679-1.406 5.224zm3.848-6.181c-.222-2.795-1.332-5.224-3.552-7.137-3.552-2.869-9.399-2.722-12.655.442-2.221 2.134-3.035 4.782-3.183 8.02.074.441.074 1.177.222 1.913.814 4.782 4.663 8.535 10.435 8.02 2.813-.221 5.107-1.472 6.735-3.679 1.702-2.281 2.22-4.856 1.998-7.579zm-25.236 1.104v4.268c0 .294-.148.735-.296.956-1.333 1.692-3.183 2.649-5.329 2.943-4.589.515-7.031-2.501-7.623-6.033-.37-2.355-.222-4.709.888-6.843 1.48-2.869 4.515-4.047 7.697-3.311 1.628.368 3.034 1.251 4.145 2.502.444.441.666.883.592 1.545-.074 1.251-.074 2.649-.074 3.973zm.74-17.291c-.592 0-.74.148-.74.736v8.977.735c-.148-.22-.222-.22-.296-.294-4.219-4.93-11.842-3.973-14.506 1.84-1.554 3.458-1.554 6.989-.074 10.448 1.85 4.414 7.179 6.327 11.619 4.267 1.258-.589 2.368-1.398 3.331-2.428v1.472c0 1.545-.222 1.324 1.406 1.324.888 0 .888 0 .888-.883 0-8.167 0-16.408 0-24.575-.074-1.839.222-1.545-1.628-1.619zm-32.1198 24.281v1.398c0 1.545-.2221 1.324 1.4061 1.398.8141 0 .8141 0 .8141-.809 0-5.813 0-11.626 0-17.438 0-1.472.222-1.251-1.3321-1.325-.8881 0-.8881 0-.8881.883v13.391c0 .368-.148.736-.3701 1.03-2.1462 2.208-4.8105 3.238-7.9188 2.649-1.4062-.294-2.3683-1.103-2.7383-2.501-.148-.663-.296-1.398-.296-2.061 0-3.973 0-8.019 0-11.993 0-1.471.222-1.324-1.4062-1.324-.8881 0-.8881 0-.8881.883v12.14c0 .662 0 1.325.074 1.987.2221 1.913.9621 3.458 2.8123 4.341 1.1101.515 2.2943.662 3.4784.662 2.5163-.074 4.7365-1.03 6.5867-2.722.222-.221.37-.368.6661-.589zm14.4318.368c-.222.147-.37.294-.518.368-.814.515-1.703.736-2.665.368-.962-.442-1.036-1.325-1.11-2.208 0-.147 0-.368 0-.515v-5.371c0-2.354 0-4.709 0-7.063 0-.515.148-.662.666-.662h2.073c1.48 0 1.332.22 1.332-1.398 0-.515-.222-.663-.666-.663-.962 0-1.925 0-2.887 0-.444 0-.592-.147-.592-.588 0-1.104 0-2.134 0-3.238 0-1.839.296-1.545-1.628-1.545-.518 0-.666.147-.666.662v4.121c0 .441-.148.588-.592.588s-.888 0-1.332 0c-1.6284 0-1.4063-.294-1.4063 1.472 0 .368.148.515.518.515h1.8503c.962 0 .962 0 .962.883v12.95c0 1.177.222 2.354 1.184 3.237 1.406 1.324 4.737 1.251 5.995-.147.074-.074.148-.295.074-.442-.074-.368-.37-.883-.592-1.324zm76.82-17.585c-2.812.147-4.885 1.471-6.735 3.679 0-.81 0-1.325 0-1.913 0-1.472.148-1.325-1.332-1.325-.962 0-.962 0-.962.957v17.217c0 1.619-.148 1.398 1.48 1.398.814 0 .814 0 .814-.809 0-4.268 0-8.535 0-12.729 0-.295 0-.589.148-.883.888-1.545 3.923-3.679 6.587-3.09zm-91.2518 17.217v1.398c0 1.545-.2221 1.324 1.4061 1.398.8141 0 .8141 0 .8141-.809 0-5.813 0-11.626 0-17.438 0-1.472.222-1.251-1.3321-1.325-.8881 0-.8881 0-.8881.883v13.391c0 .368-.148.736-.3701 1.03-2.1462 2.208-4.8105 3.238-7.9188 2.649-1.4062-.294-2.3683-1.103-2.7383-2.501-.148-.663-.296-1.398-.296-2.061 0-3.973 0-8.019 0-11.993 0-1.471.222-1.324-1.4062-1.324-.8881 0-.8881 0-.8881.883v12.14c0 .662 0 1.325.074 1.987.2221 1.913.9621 3.458 2.8123 4.341 1.1101.515 2.2943.662 3.4784.662 2.5163-.074 4.7365-1.03 6.5867-2.722.222-.221.37-.368.6661-.589zm14.4318.368c-.222.147-.37.294-.518.368-.814.515-1.703.736-2.665.368-.962-.442-1.036-1.325-1.11-2.208 0-.147 0-.368 0-.515v-5.371c0-2.354 0-4.709 0-7.063 0-.515.148-.662.666-.662h2.073c1.48 0 1.332.22 1.332-1.398 0-.515-.222-.663-.666-.663-.962 0-1.925 0-2.887 0-.444 0-.592-.147-.592-.588 0-1.104 0-2.134 0-3.238 0-1.839.296-1.545-1.628-1.545-.518 0-.666.147-.666.662v4.121c0 .441-.148.588-.592.588s-.888 0-1.332 0c-1.6284 0-1.4063-.294-1.4063 1.472 0 .368.148.515.518.515h1.8503c.962 0 .962 0 .962.883v12.95c0 1.177.222 2.354 1.184 3.237 1.406 1.324 4.737 1.251 5.995-.147.074-.074.148-.295.074-.442-.074-.368-.37-.883-.592-1.324zm-36.2642-4.709c-1.5541 2.869-3.9964 4.635-7.3268 5.224-3.2563.515-6.2906-.074-8.8809-2.134-1.9242-1.471-3.0343-3.458-3.6264-5.812-.8881-3.679-.6661-7.211 1.3321-10.596 2.1463-3.605 6.2167-5.15 10.2871-4.782 5.2546.515 8.807 4.341 9.5471 9.418.074.736.148 1.471.222 2.281 0 2.281-.4441 4.414-1.5542 6.401zm3.9224-9.124c-.592-3.531-2.2202-6.548-5.2545-8.755-2.7383-1.987-5.9207-2.649-9.325-2.428-4.0705.367-7.4008 2.06-9.6951 5.444-2.4422 3.532-3.0343 7.432-2.2202 11.552.7401 3.752 2.5903 6.769 5.9206 8.829 2.5163 1.545 5.3286 2.134 8.2889 1.913 3.9225-.22 7.1048-1.839 9.5471-4.856 2.1462-2.649 2.9603-5.739 3.0343-9.491-.074-.368-.148-1.251-.2961-2.208zm91.9178 12.509c-3.108 3.384-8.733 2.722-11.027-1.178-.888-1.545-1.332-3.164-1.332-4.856 0-2.06.444-3.899 1.628-5.518 2.738-3.753 8.511-3.753 11.249 0 2.442 3.458 2.146 8.682-.518 11.552zm4.441-8.168c-.296-1.986-1.11-3.752-2.443-5.224-2.22-2.354-5.032-3.163-8.215-2.869-2.072.221-3.922.956-5.402 2.428-2.22 2.134-3.034 4.782-3.108 7.358 0 3.016.666 5.444 2.516 7.505 2.072 2.354 4.81 3.384 7.993 3.163 3.182-.22 5.624-1.618 7.252-4.267 1.481-2.502 1.851-5.224 1.407-8.094z"/><path d="m224.807 107.348c-1.597 0-3.121 0-4.718 0s-3.193 0-4.79 0c-.653 0-.653 0-.581-.636.508-2.402 2.54-4.098 5.008-4.098 3.048-.07 5.081 1.343 5.661 3.957.218.706.145.777-.58.777zm4.79-.353c-.653-3.957-3.629-7.2775-8.202-7.7721-3.629-.3532-6.749.6359-9.072 3.3911-2.323 2.756-2.758 5.864-1.887 9.185.798 3.038 2.758 5.157 5.734 6.288 2.54.989 5.153.918 7.766.282 1.524-.353 2.903-1.059 4.137-1.978.145-.141.363-.494.29-.565-.581-.848-1.161-1.696-1.814-2.544-.146.071-.291.142-.363.212-1.742 1.413-3.702 1.979-5.952 1.837-1.669-.07-3.121-.706-4.137-1.907-.798-.848-1.234-1.837-1.306-3.038h.725 13.718c.508 0 .726-.142.653-.636-.145-.919-.145-1.837-.29-2.755zm-158.1506 1.978v3.25c0 .212 0 .494-.1451.636-1.4516 1.625-3.2661 2.472-5.5161 2.19-2.3225-.283-3.7015-1.555-4.3547-3.603-.5807-1.767-.5807-3.533.1451-5.299 1.0161-2.544 3.7016-3.886 6.5322-3.109 1.2338.353 2.3225.919 3.1935 1.908.1451.212.2903.494.2903.706-.0726 1.201-.1452 2.261-.1452 3.321zm4.4999-8.69c0-.4949-.2177-.7068-.7258-.6362-1.0161 0-2.0322 0-3.1209 0-.508 0-.6532.1413-.6532.6362v1.837c-.1451-.142-.2177-.212-.2903-.283-3.7016-3.8858-10.2337-3.3912-13.0643 1.13-2.1774 3.533-2.25 7.277-.7258 11.022 2.3226 5.652 9.9434 6.5 13.7175 2.473.0726-.071.2178-.142.3629-.283v1.766c0 .424.1452.566.5807.566h3.1209c.7983 0 .7983 0 .7983-.707 0-3.886 0-7.771 0-11.657 0-2.049-.0725-3.957 0-5.864zm-50.5878 12.646c-1.379-.636-2.6854-1.271-3.9919-1.907-.0725-.071-.3629.141-.4354.282-3.4838 4.805-10.3063 4.169-13.57238.354-2.1048-2.473-2.61286-5.299-2.03222-8.337.79837-4.0274 4.28218-6.9241 8.5644-7.0654 2.9757-.0706 5.2983 1.0598 6.9676 3.3206.2903.3532.4355.3533.7984.212.8709-.4946 1.8144-.9185 2.758-1.3424l.8709-.4239c-.0726-.212-.1451-.2826-.2177-.4239-1.3064-1.9076-3.0483-3.3913-5.2257-4.3804-2.758-1.2011-5.5886-1.3424-8.4918-.7772-3.70156.6359-6.7499 2.4022-8.92728 5.3695-2.104801 2.8971-2.685436 6.0761-2.322539 9.5381.435476 3.744 2.177379 6.782 5.370879 8.972 2.75801 1.908 5.95154 2.685 9.43534 2.615 1.887-.071 3.7015-.495 5.3709-1.343 2.1048-1.13 3.7015-2.685 5.0805-4.663zm98.2725.142c-.145-.142-.145-.212-.218-.212-1.234-.566-2.467-1.201-3.701-1.767-.145-.07-.363.071-.508.142-.436.494-.871.989-1.307 1.413-3.846 3.32-9.58 2.19-12.411-1.201-1.887-2.261-2.395-4.805-2.032-7.631.581-4.0269 3.701-7.4887 8.782-7.63 2.903-.1413 5.226 1.0597 6.895 3.3205.218.2826.436.424.798.212 1.089-.5652 2.178-1.1304 3.267-1.625.362-.1413.362-.3532.145-.6358-1.307-1.9076-3.049-3.3913-5.226-4.3804-2.468-1.0598-5.008-1.2717-7.621-.9185-4.137.4946-7.548 2.3315-9.871 5.6521-1.8142 2.5431-2.4674 5.4401-2.2496 8.5491.2177 3.25 1.379 6.146 3.8466 8.478 2.976 2.897 6.75 4.027 10.96 3.956 3.556-.07 6.532-1.342 8.854-3.815.581-.565 1.089-1.272 1.597-1.907zm6.75-11.234c0-.071 0-.212 0-.353 0-2.7556 0-5.511 0-8.3371 0-.4239-.145-.5652-.581-.5652-.943 0-1.887 0-2.903 0-.943 0-.943 0-.943.9185v12.4348 11.869c0 .495.145.707.725.707 1.016-.071 1.96 0 2.976 0 .726 0 .726 0 .726-.777 0-3.957 0-7.843 0-11.799 0-.353.145-.707.363-.919 1.524-1.625 3.411-2.261 5.661-1.978 1.379.141 2.322.848 2.613 2.049.145.706.218 1.413.218 2.19v10.598c0 .494.145.636.653.636h3.121c.508 0 .653-.142.653-.636-.073-4.522-.073-9.044-.073-13.565 0-2.332-1.596-4.239-3.992-4.8045-2.177-.5652-4.354-.3532-6.387.6355-1.016.424-1.887 1.06-2.83 1.696zm42.894-.141c0-.495 0-1.06 0-1.625 0-.3535-.145-.4948-.508-.4948-1.161 0-2.322 0-3.484 0-.362 0-.508.1413-.435.4238v1.201 16.462c0 .706 0 .706.798.706h2.613c1.161 0 1.089.142 1.089-.989 0-3.815 0-7.701 0-11.516 0-.494.145-.777.508-1.13 1.379-1.272 2.976-1.908 4.935-1.837 2.178.07 3.339 1.201 3.412 3.25.072 1.342 0 2.614 0 3.956v7.701c0 .495.145.636.653.636h3.193c.363 0 .581-.071.581-.495 0-4.521 0-9.043 0-13.565 0-2.472-1.669-4.38-4.137-4.9451-2.032-.4946-3.992-.3533-5.879.4945-1.234.4236-2.25 1.1306-3.339 1.7666zm21.121.07c0-.494 0-1.059 0-1.554 0-.4239-.145-.5652-.653-.5652-1.016 0-2.105 0-3.121 0-.508 0-.653.1413-.653.6362v6.146 11.234c0 .777 0 .777.798.777h2.831c.798 0 .798 0 .798-.777 0-3.957 0-7.842 0-11.799 0-.424.145-.777.508-1.06 1.452-1.342 3.193-2.048 5.298-1.837 1.524.142 2.613.99 2.903 2.403.073.423.146.847.146 1.271v11.163c0 .495.145.707.725.707 1.016-.071 2.033-.071 3.049 0 .58 0 .725-.212.725-.707 0-4.098 0-8.125 0-12.222 0-.566-.072-1.202-.145-1.767-.29-2.261-1.814-3.8855-4.137-4.3801-2.177-.4946-4.282-.2826-6.242.6361-1.016.424-1.887 1.13-2.83 1.695zm42.531 3.745c0-4.098 0-8.1956 0-12.2934 0-.4946-.145-.7065-.653-.6359-1.016.0707-2.105.0707-3.121 0-.508 0-.726.212-.653.6359v.4239 23.7385c0 1.201-.073 1.06 1.161 1.06h2.468c.871 0 .871 0 .871-.777v-12.152zm-204.5283 0c0-4.098 0-8.1956 0-12.2227 0-.7066 0-.7066-.7258-.7066h-2.9032c-.7983 0-.7983 0-.7983.7066v13.9187 10.456c0 .565.1451.706.7258.706 1.0161-.07 1.9596 0 2.9757 0 .7258 0 .7258 0 .7258-.706 0-4.027 0-8.125 0-12.152zm51.3136-3.533c0-.565 0-1.201 0-1.766 0-.4239-.1451-.6358-.5806-.5652-1.0887 0-2.1048 0-3.1935 0-.5081 0-.6532.1413-.6532.6362v4.239 13.212c0 .706 0 .706.7984.706h2.9031c.7258 0 .7258 0 .7258-.706 0-3.816 0-7.701 0-11.517 0-.353.1452-.777.4355-1.059 1.0887-1.06 2.3951-1.696 3.9193-1.908.6532-.071 1.3064 0 2.0322 0 0-1.201 0-2.402 0-3.5325 0-.4946-.2177-.7065-.6532-.5652-1.0161.2826-2.1048.4946-3.0483.9187-.9436.494-1.8145 1.271-2.6855 1.907zm-58.3538 10.951c-1.379-.636-2.6854-1.271-3.9919-1.907-.0725-.071-.3629.141-.4354.282-3.4838 4.805-10.3063 4.169-13.57238.354-2.1048-2.473-2.61286-5.299-2.03222-8.337.79837-4.0274 4.28218-6.9241 8.5644-7.0654 2.9757-.0706 5.2983 1.0598 6.9676 3.3206.2903.3532.4355.3533.7984.212.8709-.4946 1.8144-.9185 2.758-1.3424l.8709-.4239c-.0726-.212-.1451-.2826-.2177-.4239-1.3064-1.9076-3.0483-3.3913-5.2257-4.3804-2.758-1.2011-5.5886-1.3424-8.4918-.7772-3.70156.6359-6.7499 2.4022-8.92728 5.3695-2.104801 2.8971-2.685436 6.0761-2.322539 9.5381.435476 3.744 2.177379 6.782 5.370879 8.972 2.75801 1.908 5.95154 2.685 9.43534 2.615 1.887-.071 3.7015-.495 5.3709-1.343 2.1048-1.13 3.7015-2.685 5.0805-4.663zm98.2725.142c-.145-.142-.145-.212-.218-.212-1.234-.566-2.467-1.201-3.701-1.767-.145-.07-.363.071-.508.142-.436.494-.871.989-1.307 1.413-3.846 3.32-9.58 2.19-12.411-1.201-1.887-2.261-2.395-4.805-2.032-7.631.581-4.0269 3.701-7.4887 8.782-7.63 2.903-.1413 5.226 1.0597 6.895 3.3205.218.2826.436.424.798.212 1.089-.5652 2.178-1.1304 3.267-1.625.362-.1413.362-.3532.145-.6358-1.307-1.9076-3.049-3.3913-5.226-4.3804-2.468-1.0598-5.008-1.2717-7.621-.9185-4.137.4946-7.548 2.3315-9.871 5.6521-1.8142 2.5431-2.4674 5.4401-2.2496 8.5491.2177 3.25 1.379 6.146 3.8466 8.478 2.976 2.897 6.75 4.027 10.96 3.956 3.556-.07 6.532-1.342 8.854-3.815.581-.565 1.089-1.272 1.597-1.907zm37.524-.778c0 .283-.146.707-.363.919-1.597 1.554-3.557 2.331-5.879 1.837-1.742-.353-2.903-1.413-3.557-2.897-.871-2.049-.871-4.098 0-6.076 1.089-2.402 3.774-3.603 6.46-2.826 1.161.353 2.177.848 2.976 1.766.217.212.363.566.363.919.072 1.06 0 2.19 0 3.25.072.918.072 1.978 0 3.108zm4.572-12.081c0-.4239-.145-.6358-.653-.6358-1.089 0-2.178 0-3.339 0-.435 0-.58.1413-.58.5648v1.696c-.073.071-.146.071-.218.141-.073-.141-.145-.353-.291-.424-3.701-3.6028-10.088-2.9669-12.774 1.343-2.395 3.886-2.395 7.913-.29 11.94 1.96 3.744 6.46 4.945 10.161 3.674 1.307-.424 2.395-1.272 3.412-2.332v1.766c0 .424.145.566.653.566h3.121c.798 0 .798 0 .798-.777 0-4.028 0-8.125 0-12.152 0-1.837 0-3.604 0-5.37zm-35.346 1.625c0-.071 0-.212 0-.353 0-2.7556 0-5.511 0-8.3371 0-.4239-.145-.5652-.581-.5652-.943 0-1.887 0-2.903 0-.943 0-.943 0-.943.9185v12.4348 11.869c0 .495.145.707.725.707 1.016-.071 1.96 0 2.976 0 .726 0 .726 0 .726-.777 0-3.957 0-7.843 0-11.799 0-.353.145-.707.363-.919 1.524-1.625 3.411-2.261 5.661-1.978 1.379.141 2.322.848 2.613 2.049.145.706.218 1.413.218 2.19v10.598c0 .494.145.636.653.636h3.121c.508 0 .653-.142.653-.636-.073-4.522-.073-9.044-.073-13.565 0-2.332-1.596-4.239-3.992-4.8045-2.177-.5652-4.354-.3532-6.387.6355-1.016.424-1.887 1.06-2.83 1.696zm42.894-.141c0-.495 0-1.06 0-1.625 0-.3535-.145-.4948-.508-.4948-1.161 0-2.322 0-3.484 0-.362 0-.508.1413-.435.4238v1.201 16.462c0 .706 0 .706.798.706h2.613c1.161 0 1.089.142 1.089-.989 0-3.815 0-7.701 0-11.516 0-.494.145-.777.508-1.13 1.379-1.272 2.976-1.908 4.935-1.837 2.178.07 3.339 1.201 3.412 3.25.072 1.342 0 2.614 0 3.956v7.701c0 .495.145.636.653.636h3.193c.363 0 .581-.071.581-.495 0-4.521 0-9.043 0-13.565 0-2.472-1.669-4.38-4.137-4.9451-2.032-.4946-3.992-.3533-5.879.4945-1.234.4236-2.25 1.1306-3.339 1.7666zm21.121.07c0-.494 0-1.059 0-1.554 0-.4239-.145-.5652-.653-.5652-1.016 0-2.105 0-3.121 0-.508 0-.653.1413-.653.6362v6.146 11.234c0 .777 0 .777.798.777h2.831c.798 0 .798 0 .798-.777 0-3.957 0-7.842 0-11.799 0-.424.145-.777.508-1.06 1.452-1.342 3.193-2.048 5.298-1.837 1.524.142 2.613.99 2.903 2.403.073.423.146.847.146 1.271v11.163c0 .495.145.707.725.707 1.016-.071 2.033-.071 3.049 0 .58 0 .725-.212.725-.707 0-4.098 0-8.125 0-12.222 0-.566-.072-1.202-.145-1.767-.29-2.261-1.814-3.8855-4.137-4.3801-2.177-.4946-4.282-.2826-6.242.6361-1.016.424-1.887 1.13-2.83 1.695zm42.531 3.745c0-4.098 0-8.1956 0-12.2934 0-.4946-.145-.7065-.653-.6359-1.016.0707-2.105.0707-3.121 0-.508 0-.726.212-.653.6359v.4239 23.7385c0 1.201-.073 1.06 1.161 1.06h2.468c.871 0 .871 0 .871-.777v-12.152zm-204.5283 0c0-4.098 0-8.1956 0-12.2227 0-.7066 0-.7066-.7258-.7066h-2.9032c-.7983 0-.7983 0-.7983.7066v13.9187 10.456c0 .565.1451.706.7258.706 1.0161-.07 1.9596 0 2.9757 0 .7258 0 .7258 0 .7258-.706 0-4.027 0-8.125 0-12.152zm51.3136-3.533c0-.565 0-1.201 0-1.766 0-.4239-.1451-.6358-.5806-.5652-1.0887 0-2.1048 0-3.1935 0-.5081 0-.6532.1413-.6532.6362v4.239 13.212c0 .706 0 .706.7984.706h2.9031c.7258 0 .7258 0 .7258-.706 0-3.816 0-7.701 0-11.517 0-.353.1452-.777.4355-1.059 1.0887-1.06 2.3951-1.696 3.9193-1.908.6532-.071 1.3064 0 2.0322 0 0-1.201 0-2.402 0-3.5325 0-.4946-.2177-.7065-.6532-.5652-1.0161.2826-2.1048.4946-3.0483.9187-.9436.494-1.8145 1.271-2.6855 1.907zm-44.4911 5.37c.2177-2.968 2.6854-4.875 5.9515-4.734 2.6854.142 5.008 2.332 4.8628 4.734zm15.0239.141c-.5806-4.31-3.5564-7.7715-8.274-8.2661-3.5564-.3532-6.6048.5653-8.9273 3.2501-2.5403 2.897-2.9758 6.217-1.9597 9.75.871 3.038 2.9758 5.016 6.0967 6.076 2.758.918 5.516.777 8.2741-.212 1.1612-.424 2.1773-1.131 3.1935-1.696.1451-.071.2903-.424.2177-.494-.5806-.848-1.2339-1.696-1.8145-2.544-.1451.141-.2903.141-.3629.212-1.6693 1.342-3.629 1.908-5.8063 1.766-2.7581-.07-4.9354-1.837-5.5161-4.38-.0726-.424 0-.565.5081-.565h2.1048 11.6853c.5806 0 .7983-.141.7258-.707-.0726-.706-.0726-1.413-.1452-2.19z"/><path d="m159.192.164593c.987.164584 2.139.49374 3.291.658324 4.938 1.316663 7.9 4.937523 8.065 9.874983.164 4.9375 0 9.7104 0 14.6479 0 .4938-.329 1.1521-.823 1.4813-11.027 8.7229-22.548 16.4583-35.385 22.3833-7.407 3.4563-15.307 6.0896-23.536 7.0771-4.608.4937-9.217.3292-13.6603-.8229-9.875-2.7979-14.6479-11.3562-11.5208-20.9021 1.975-6.0896 5.925-11.0271 10.8625-15.1417 5.9246-5.102 13.0016-8.5583 20.2436-11.52079 8.888-3.62084 18.104-6.08959 27.65-7.406255 1.646-.164583 3.292-.329172 5.102-.493755h9.711z"/><path d="m69 54.9708c.4938.6584.8229 1.1521 1.3167 1.8105 4.6083 7.2416 11.3562 11.1916 19.75 12.6728 9.5458 1.6459 18.7623.1646 27.8143-2.4687 13.99-3.95 26.827-10.5333 39.006-18.1042 4.28-2.6333 8.23-5.5958 12.344-8.3937.329-.1646.659-.4938 1.317-.8229 0 .6583.164 1.1521.164 1.4812v28.4729c0 5.5959-5.76 9.3813-9.71 9.3813-27.485 0-54.971 0-82.6208 0-4.6083 0-7.7354-2.6333-9.3812-6.7479z"/><path d="m113.602.164593c-.494.329167-1.152.658334-1.646.822917-8.723 3.12708-17.1164 6.74793-24.5227 12.17919-8.8875 6.5833-15.3062 14.8125-18.1041 25.5104 0 .3292-.3292.6583-.3292.8229v-32.75207c1.3167-3.45625 3.95-5.59585 7.4063-6.74793h37.1957z"/></g></svg>