<svg fill="none" height="77" viewBox="0 0 240 77" width="240" xmlns="http://www.w3.org/2000/svg"><g fill="#000"><path d="m51.4491 62.7104c-2.4104 0-4.4053 2.0364-4.4053 4.5717 0 2.5348 1.9534 4.5712 4.4053 4.5712 2.4105 0 4.4048-2.0358 4.4048-4.5712 0-2.5353-1.9529-4.5717-4.4048-4.5717zm0 6.9822c-1.2466 0-2.2441-1.0809-2.2441-2.4105 0-1.3301.9969-2.4104 2.2441-2.4104 1.2467 0 2.2442 1.0809 2.2442 2.4104.0414 1.3296-.9975 2.4105-2.2442 2.4105zm-27.6362-6.7324h-1.6208c-.1249 0-.2907.1243-.3327.2493l-1.3296 4.1975-2.2855-4.4888c-.0429-.0604-.0988-.1104-.1635-.1463-.0648-.036-.1367-.057-.2106-.0615h-.1664c-.0739.0045-.1459.0255-.2106.0615-.0647.0359-.1206.0859-.1635.1463l-2.2856 4.4882-1.3301-4.1975c-.0414-.1244-.2078-.2487-.3321-.2487h-1.6214c-.2072 0-.3321.1658-.2486.3736l2.6597 8.3123c.0414.1249.2078.2498.3321.2498h.2492c.0739-.0045.1459-.0255.2106-.0615.0647-.0359.1206-.0859.1635-.1463l2.7017-5.2785 2.7011 5.2785c.0429.0604.0988.1104.1635.1463.0648.036.1367.057.2107.0615h.2492c.1249 0 .2906-.1249.3327-.2498l2.6596-8.3111c0-.2084-.1249-.3742-.3326-.3742zm3.8234 0h-1.6214c-.0491-.0001-.0977.0094-.1431.0281-.0454.0188-.0866.0463-.1213.081s-.0623.0759-.081.1213-.0282.0941-.0281.1432v7.8967c-.0001.0492.0094.0979.0282.1433.0187.0454.0463.0867.0811.1214s.0761.0622.1215.0809c.0455.0187.0942.0282.1433.0279h1.6208c.0492.0003.098-.0092.1435-.028.0455-.0187.0868-.0462.1216-.081s.0623-.0761.0811-.1216c.0187-.0455.0282-.0943.0279-.1435v-7.8961c.0002-.0492-.0094-.0979-.0281-.1433-.0188-.0454-.0463-.0867-.0811-.1214-.0348-.0348-.0761-.0622-.1216-.0809-.0454-.0187-.0941-.0282-.1433-.028zm7.148-.2498c-1.1224 0-2.1613.4985-2.9089 1.2887l-.2913-.7896c-.0414-.125-.2078-.2493-.3321-.2493h-.7482c-.0492-.0002-.0979.0093-.1433.028-.0455.0187-.0868.0461-.1216.0809-.0348.0347-.0623.076-.0811.1214-.0187.0454-.0283.0941-.0281.1433v12.4678c-.0003.0492.0092.098.028.1435.0187.0455.0462.0868.081.1216s.0761.0623.1216.0811c.0455.0187.0943.0282.1435.028h1.6208c.0492.0002.0979-.0093.1434-.028.0455-.0188.0869-.0463.1216-.0811.0348-.0348.0624-.0761.0811-.1216s.0282-.0943.028-.1435v-4.3225c.7062.2498 1.4544.3742 2.2441.3742 2.2856 0 4.1556-2.0358 4.1556-4.5712.042-2.5353-1.8286-4.5717-4.1141-4.5717zm-.457 6.9822c-.6654 0-1.3302-.1663-1.8286-.4984v-3.2836c.1823-.3255.4475-.5969.7687-.7868.3211-.1898.6868-.2913 1.0599-.2942 1.2052 0 2.202 1.081 2.202 2.4111 0 1.371-.9968 2.4519-2.202 2.4519zm10.6387-6.9822c-1.5794 0-2.4934 1.2887-2.4934 1.2887l-.2912-.7896c-.0414-.125-.2078-.2493-.3321-.2493h-.7482c-.0492-.0002-.0979.0093-.1433.028-.0455.0187-.0868.0461-.1216.0809-.0348.0347-.0623.076-.0811.1214-.0187.0454-.0283.0941-.0282.1433v7.8967c-.0001.0492.0095.0979.0282.1433.0188.0454.0463.0867.0811.1214s.0761.0622.1216.0809c.0454.0187.0941.0282.1433.0279h1.6208c.0491.0003.0979-.0092.1434-.028.0455-.0187.0868-.0462.1216-.081s.0624-.0761.0811-.1216.0282-.0943.028-.1435v-5.5271c.9554-1.1638 2.1606-.7897 2.4104-.6648.2493.0829.4156-.042.4985-.2078.0828-.1663.4155-.9974.5819-1.2887.1243-.2906-.0835-.8311-1.6214-.8311zm-17.8287-3.8229c-.7062-.2077-1.413.2493-1.6208.9555-.2078.7068.2498 1.4544.9146 1.6214.7062.2071 1.413-.2499 1.6208-.9561.2078-.7068-.2078-1.413-.9146-1.6214z"/><path d="m7.97902 71.562c-.14507.0738-.2985.1299-.45699.1669-.16634.0415-.29065.0415-.49842.0415-.37412 0-.70681-.1249-.91459-.3741-.21267-.2574-.33016-.5802-.33268-.914h-.04144c-.26717.4462-.6564.8067-1.12176 1.0389-.49843.2492-1.03889.3741-1.66282.3741-.49843 0-.91399-.0835-1.28811-.2498-.37412-.1664-.5819-.3741-.831109-.6234-.249213-.2492-.415556-.5404-.540463-.8725-.115301-.3053-.171546-.6297-.165742-.956 0-.2907.041436-.5819.124307-.8726.083471-.2906.249213-.5819.498427-.8311.249814-.2492.54046-.457.91458-.6648.37412-.1663.87255-.2912 1.45445-.3326l2.57681-.1664v-.6233c0-.2078-.04204-.457-.08287-.6648-.04065-.2479-.17449-.4709-.37412-.6233-.16635-.1249-.33269-.2492-.54047-.3327-.20778-.0829-.49842-.1243-.87255-.1243-.37412 0-.7068.0414-.95601.1243-.24922.0835-.457.2078-.5819.3741-.29065.2907-.41556.6234-.41556 1.0389h-1.371574c0-.4155.083472-.7482.207778-1.0389.124907-.2906.29125-.5404.540466-.7897.31781-.3148.70098-.5559 1.12236-.7062.48014-.1702.98647-.2548 1.49588-.2498.83111 0 1.49588.1664 1.99491.4576.49843.3321.83111.7062 1.03889 1.2052.16634.4156.24921.8312.24921 1.3296v4.1976c0 .2078.04204.3741.12491.457.09024.0832.20936.128.33208.1249h.24982l.1243-.0421v1.1224zm-2.24412-4.1135-2.28556.1243c-.20777 0-.41555.042-.66477.1249-.20777.0829-.41555.1663-.62333.2906-.17264.131-.32659.285-.45759.4576-.12431.2078-.16574.4156-.16574.7062 0 .3742.1243.7483.37352 1.0389.24981.2913.7068.457 1.2887.457.32609.0057.65031-.0505.95542-.1657.29125-.1249.5825-.2913.78968-.5405.24981-.2492.45759-.5819.54046-.9146.12491-.3321.16634-.7062.16634-1.0389v-.5404h.08287zm60.8411 1.2881c-.042.457-.1249.8725-.2906 1.2467-.1839.3538-.4224.6765-.7068.956-.2907.2906-.6648.5404-1.081.7062-.4149.1663-.8719.2498-1.4124.2498-.7896 0-1.413-.1664-1.9114-.4576-.4984-.3321-.9146-.7062-1.2052-1.1632-.2447-.3847-.4271-.8057-.5405-1.2473-.1249-.4984-.1663-1.0389-.1663-1.7036 0-.6648.042-1.2053.1663-1.7037.1249-.4984.2906-.8731.5405-1.2467.2906-.4575.7062-.8317 1.2052-1.1638.4984-.3326 1.1218-.4569 1.9114-.4569.4985 0 .956.0828 1.3716.2492.4156.1663.7476.3741 1.0389.6647.2842.2796.5226.6022.7062.9561.1663.3741.2912.7896.3327 1.2466h-1.4545c-.042-.2906-.1249-.5404-.2077-.7896-.1249-.2078-.2499-.4156-.4156-.5819-.1755-.172-.3891-.3001-.6233-.3742-.2545-.0849-.5214-.1269-.7897-.1243-.3327 0-.6233.0415-.8311.1664-.2498.1243-.4576.2492-.6234.4155-.3453.3027-.5795.7121-.6653 1.1632-.1243.4984-.1664.9975-.1664 1.5373 0 .5405.0421 1.0395.1664 1.538.1249.4984.3327.8731.6653 1.1638.2078.1663.4156.2912.6234.4155.2492.1249.4984.1663.8311.1663.2906 0 .5819-.042.8311-.1663s.457-.2492.6233-.4155c.1664-.1664.2907-.3321.3742-.5405.0828-.2078.1657-.4564.2077-.7477h1.4959zm7.8962-1.413c0 .6647-.0835 1.3301-.2492 1.9114-.1664.6239-.4985 1.1224-.956 1.6214-.3327.2906-.7069.5405-1.1224.7476-.462.1883-.9556.2872-1.4545.2913-.5404 0-1.0388-.0835-1.4544-.2913-.4212-.17-.8029-.4247-1.1218-.7482-.4576-.4564-.7896-.9969-.956-1.6208-.1671-.6233-.2509-1.2661-.2492-1.9114 0-.6648.0829-1.3296.2492-1.9115.1664-.6233.4984-1.1223.956-1.6214.3405-.2961.7175-.5473 1.1218-.7476.462-.1881.9556-.2867 1.4544-.2906.5405 0 1.0389.0828 1.4545.2906.4214.17.8034.4247 1.1224.7482.4569.457.7896.9969.956 1.6208.1657.5819.2492 1.2053.2492 1.9115zm-1.4545 0c0-.4985-.042-.9969-.1663-1.4959-.1049-.4471-.3191-.8612-.6233-1.2052-.1664-.1664-.4156-.3327-.6648-.457-.2498-.1249-.5405-.1664-.8732-.1664-.332 0-.6233.0415-.8725.1664-.2492.1243-.457.2492-.6648.4564-.3043.3442-.5185.7585-.6233 1.2058-.1249.4984-.1663.9554-.1663 1.4959 0 .4984.0414.9974.1663 1.4959.1243.4984.3321.8731.6233 1.2052.1664.1663.4156.3327.6648.4576.2492.1243.5405.1657.8725.1657.3327 0 .6234-.0414.8732-.1657.2492-.1249.4564-.2498.6648-.4576.3042-.344.5184-.7581.6233-1.2052.1243-.4985.1663-.9969.1663-1.4953zm13.0072 4.3219v-5.4857c0-.2907-.0415-.5813-.0829-.8311-.0414-.2492-.1663-.457-.2906-.6234-.1249-.1663-.2913-.3321-.5405-.4155-.2641-.1074-.5461-.1638-.8311-.1664-.2492 0-.4984.0421-.7062.1664-.2078.0834-.4156.2492-.5825.4155-.2962.2951-.4984.6712-.5813 1.081-.0847.4241-.1266.8556-.1249 1.2881v4.6131h-1.4545v-5.4857c0-.2912-.042-.5825-.0828-.8317-.0421-.2492-.1249-.4564-.2913-.6233-.1243-.1658-.2906-.3321-.5405-.4156-.2639-.1071-.5457-.1633-.8305-.1657-.2895.0047-.574.0758-.8317.2077-.2492.1244-.4564.3321-.6233.5405-.2257.3091-.3814.6636-.4564 1.0389-.0806.3826-.1227.7722-.1255 1.1632v4.6131h-1.4124v-8.6444h1.2466l.1244 1.2467c.2077-.4984.5404-.8725.9974-1.0803.457-.2492.9146-.3741 1.413-.3741.6233 0 1.1638.1249 1.6214.4155.4262.303.7574.7211.9548 1.2053.1249-.2907.2498-.4985.4576-.7063.1664-.2077.4156-.3741.6234-.4984.2492-.1249.4984-.2498.7482-.2912.2492-.0835.5405-.0835.7897-.0835.9554 0 1.7036.2912 2.1606.8731.4576.5819.7068 1.3296.7068 2.327v5.6935h-1.4544v-.1657zm10.6393-4.3219c.0009.7059-.1114 1.4074-.3327 2.0778-.2078.6233-.5405 1.1637-.9554 1.5793-.3004.2553-.6364.4653-.9975.6233-.3741.1664-.8311.2493-1.3301.2493-.2492 0-.457-.0415-.7062-.0829-.2498-.0421-.4576-.1249-.7068-.2492-.2078-.0835-.4156-.2498-.6233-.3742-.1664-.1663-.3327-.3326-.457-.5404v4.696h-1.4545v-12.3424h1.2467l.0829 1.1218c.2492-.4156.6233-.7482 1.0809-.9969.4984-.2498.9554-.3326 1.4544-.3326.5405 0 .9969.0828 1.413.2492.4156.1663.7477.4155 1.0389.7062.4156.4155.7062.956.914 1.5793.2078.6234.3327 1.2881.3327 2.0364zm-1.4545 0c0-.4156-.042-.7897-.1249-1.2053-.0806-.374-.2063-.737-.3741-1.0809-.1663-.3321-.4155-.5813-.7476-.7891-.3327-.2077-.7068-.2906-1.1638-.2906-.3327 0-.5819.0414-.7897.1657-.2078.1249-.4156.2498-.5819.4156-.3741.3327-.6233.7068-.7482 1.2052-.1243.4984-.2078.9975-.2078 1.5373 0 .5405.0835 1.081.2078 1.538.1249.4984.3741.8731.7482 1.2052.1663.1663.3741.2912.5819.4155.2078.1249.4984.1664.7897.1664.457 0 .8725-.0829 1.1638-.2907.3321-.2077.5813-.457.7476-.7482.1742-.3413.3001-.705.3741-1.0809.0848-.3819.1267-.7721.1249-1.1632zm9.7243 4.239c-.145.0736-.298.1294-.457.1663-.166.0415-.291.0415-.499.0415-.374 0-.706-.1249-.914-.3741-.213-.2575-.33-.5802-.332-.914h-.042c-.267.4462-.657.8067-1.122 1.0389-.498.2492-1.039.3741-1.6622.3741-.4985 0-.9146-.0835-1.2887-.2498-.3412-.1485-.6512-.36-.914-.6234-.2492-.2492-.4156-.5404-.5405-.8725-.1155-.3053-.1719-.6297-.1663-.956 0-.2907.042-.5819.1249-.8726.0835-.2906.2492-.5819.4984-.8311.2498-.2492.5405-.457.9146-.6648.3741-.1663.8725-.2912 1.4544-.3326l2.5764-.1664v-.6233c0-.2078-.041-.457-.083-.6648-.041-.2478-.174-.4708-.374-.6233-.166-.1249-.332-.2492-.54-.3327-.208-.0829-.498-.1243-.873-.1243-.374 0-.7064.0414-.9556.1243-.2492.0835-.457.2078-.5819.3741-.2906.2907-.4155.6234-.4155 1.0389h-1.413c0-.4155.0834-.7482.2077-1.0389.1249-.2906.2913-.5404.5405-.7897.3176-.3147.7006-.5558 1.1218-.7062.4803-.1703.987-.2549 1.496-.2498.832 0 1.496.1664 1.995.4576.498.3321.831.7062 1.039 1.2052.166.4156.249.8312.249 1.3296v4.1976c0 .2078.042.3741.125.457.09.0834.21.1282.332.1249h.25l.125-.0421v1.1224zm-2.244-4.1141-2.286.1243c-.208 0-.4154.042-.6646.1249-.2078.0829-.4155.1663-.6233.2906-.1724.1311-.3262.285-.457.4576-.1249.2078-.1663.4156-.1663.7062 0 .3742.1243.7483.3741 1.0389.2492.2913.7062.457 1.2881.457.326.0058.651-.0504.956-.1657.291-.1249.582-.2913.79-.5405.249-.2492.456-.5819.54-.9146.124-.3321.166-.7062.166-1.0389v-.5404h.083zm8.644 4.1976v-5.4863c0-.6648-.125-1.1632-.415-1.5373-.292-.3742-.749-.5405-1.455-.5405-.415 0-.79.1249-1.081.3741-.327.2495-.584.5786-.747.956-.17.3344-.256.7053-.25 1.0804-.042.4155-.042.7896-.042 1.1223v4.0307h-1.454v-8.6438h1.247l.124 1.2881c.125-.2492.25-.457.457-.6648.208-.2078.416-.3327.624-.457.249-.1249.498-.2078.748-.2912.249-.0829.498-.0829.748-.0829.997 0 1.704.2906 2.202.8311.499.5405.749 1.3295.749 2.327v5.6941zm5.735 1.7451c-.208.5404-.498.9968-.831 1.3295s-.831.4984-1.496.4984c-.374 0-.665-.0408-.873-.0828-.208-.0415-.374-.0829-.416-.1243v-1.2881c.084.0414.208.0414.292.0828.082.0421.207.0421.332.0421h.415c.277.0004.549-.0714.79-.2084.208-.1249.374-.3327.498-.6648l.541-1.4544-3.407-8.6444h1.62l2.535 6.8158 2.411-6.8158h1.495z"/><path d="m9.64126 8.68524v31.08566h9.22694c4.696 0 7.979-2.3276 9.849-6.9408.9975-2.5347 1.4959-5.5685 1.4959-9.1008 0-4.8623-.7477-8.5609-2.2856-11.1791-1.5373-2.57626-4.5297-3.86496-9.0593-3.86496zm18.24424-7.18996c3.3665 1.08093 6.0676 3.11667 8.1039 6.02616 1.6285 2.31489 2.7864 4.92716 3.408 7.68836.5813 2.7426.9139 5.3608.9139 7.8962 0 6.3168-1.2881 11.6776-3.8234 16.0415-3.4494 5.9427-8.7688 8.8937-15.9581 8.8937h-20.5298v-47.584809h20.5298c2.9503.042036 5.4022.37412 7.3557 1.038889zm25.7242 19.98932c-1.2881 1.2881-2.1198 3.0746-2.4519 5.3194h15.7924c-.1664-2.3691-.9975-4.1976-2.4519-5.4443-1.4545-1.2467-3.2831-1.87-5.4443-1.87-2.327.042-4.1556.6648-5.4443 1.9949zm13.756-7.979c2.4519 1.0803 4.4883 2.8254 6.0676 5.1944 1.4545 2.0778 2.3684 4.5297 2.784 7.2722.2498 1.6214.3741 3.907.2912 6.9822h-25.5578c.1657 3.5743 1.3709 6.0262 3.6571 7.4806 1.4124.8726 3.0746 1.3296 5.0281 1.3296 2.0778 0 3.782-.4985 5.1116-1.5794 1.0809-.914 1.3301-1.371 1.87-3.3244h9.392c-.2492 3.0338-1.371 5.1116-3.4073 7.2728-3.1587 3.4079-7.522 5.1116-13.2155 5.1116-4.6546 0-8.8108-1.4545-12.343-4.3219-3.5737-2.8675-5.3608-7.6049-5.3608-14.0881 0-6.109 1.5794-10.7636 4.8203-14.0466 3.2416-3.2416 7.4392-4.8624 12.5508-4.8624 3.0752-.0835 5.8598.4984 8.3111 1.5794zm19.0333 23.3137c.2078 1.6208.6234 2.7846 1.2473 3.4908 1.1632 1.2053 3.283 1.8286 6.3582 1.8286 1.8286 0 3.2416-.2492 4.3219-.7897 1.081-.5404 1.6208-1.3295 1.6208-2.4104 0-1.0389-.4155-1.828-1.2881-2.3685-.8731-.5404-4.0727-1.4544-9.6004-2.7846-3.9892-.9968-6.8152-2.2441-8.436-3.6985-1.6623-1.4545-2.4519-3.5743-2.4519-6.3168 0-3.2416 1.2881-6.0262 3.8234-8.3952 2.5348-2.327 6.1505-3.4902 10.7637-3.4902 4.3633 0 7.9371.8725 10.7211 2.6182 2.785 1.7451 4.364 4.7789 4.78 9.1008h-9.1843c-.1249-1.1638-.4576-2.1198-.9975-2.826-1.0389-1.2467-2.7431-1.87-5.1944-1.87-1.9955 0-3.45.2912-4.3225.956-.8311.6233-1.2881 1.3296-1.2881 2.2027 0 1.0803.457 1.8286 1.3709 2.2856.9146.4984 4.1148 1.3295 9.6005 2.5347 3.6574.8732 6.4414 2.1613 8.2284 3.9064 1.828 1.7457 2.701 3.9484 2.701 6.608 0 3.4908-1.288 6.3169-3.865 8.5195-2.618 2.2027-6.6074 3.283-12.0517 3.283-5.5271 0-9.5998-1.1637-12.2595-3.4907-2.6183-2.3276-3.9484-5.3194-3.9484-8.8937zm58.888 1.2467c1.455-1.6208 2.203-4.1976 2.203-7.7712 0-3.3245-.707-5.9013-2.12-7.647-1.413-1.7451-3.241-2.6182-5.61-2.6182-3.201 0-5.403 1.4964-6.608 4.5302-.623 1.6208-.956 3.6151-.956 5.9842 0 2.0363.333 3.8649 1.039 5.4857 1.205 2.9509 3.449 4.4468 6.649 4.4468 2.12.042 3.907-.7897 5.403-2.4105zm-3.116-25.2672c2.243.9145 4.03 2.6182 5.402 5.0701v-5.0701h9.018v33.3712c0 4.5296-.748 7.979-2.286 10.2645-2.618 3.9899-7.647 5.9433-15.085 5.9433-4.489 0-8.146-.8731-10.972-2.6602-2.826-1.7451-4.405-4.4048-4.696-7.8956h10.016c.249 1.0809.664 1.8286 1.246 2.327.998.8311 2.661 1.2467 4.988 1.2467 3.283 0 5.527-1.1218 6.648-3.3245.749-1.413 1.123-3.782 1.123-7.1065v-2.2441c-.873 1.4959-1.829 2.6182-2.868 3.3665-1.828 1.413-4.197 2.0778-7.106 2.0778-4.53 0-8.104-1.5794-10.805-4.7381-2.701-3.1581-4.031-7.48-4.031-12.8828 0-5.2365 1.288-9.5999 3.906-13.1735 2.576-3.5743 6.275-5.32 11.013-5.32 1.663-.0414 3.2.2498 4.488.7483zm45.63 2.0777c2.286 1.9121 3.45 5.0702 3.45 9.4756v23.647h-9.434v-21.3603c0-1.8291-.25-3.2836-.749-4.2396-.914-1.7871-2.618-2.7011-5.152-2.7011-3.117 0-5.195 1.2881-6.36 3.9478-.622 1.413-.914 3.2007-.914 5.3613v19.0334h-9.184v-35.1584h8.852v5.1537c1.164-1.8286 2.286-3.1167 3.325-3.9064 1.87-1.413 4.28-2.1198 7.189-2.1198 3.741 0 6.691.956 8.977 2.8674zm6.816-1.703h9.35v34.8256h-9.35zm9.309-4.48826h-9.309v-8.478063h9.309zm-92.55 4.48826h9.309v34.8256h-9.309zm9.309-4.48826h-9.309v-8.478063h9.309zm85.942 10.92936v-6.4405h4.862v-9.93312h9.143v9.89042h5.735v6.4418h-5.735v18.6598c0 1.4544.208 2.3269.54 2.7011.374.3741 1.496.5404 3.366.5404.291 0 .582 0 .873-.042.291 0 .623-.0408.914-.0829v6.8987l-4.363.2078c-4.364.1249-7.315-.5819-8.894-2.2855-1.039-1.0389-1.579-2.6597-1.579-4.9038v-21.6516h-4.862zm27.678-15.45904c-.25-.08347-.624-.12491-1.081-.12491h-.415v2.03635h.706c.415 0 .748-.08287.997-.24922.25-.16634.374-.45699.374-.83111 0-.41555-.207-.7068-.581-.83111zm-3.325 5.61001v-6.98159h3.407c.582.04204.997.16635 1.371.37413.624.33208.956.87254.956 1.66222 0 .5819-.166.99685-.498 1.24667-.333.29065-.748.41555-1.206.49842.416.08348.79.20778.998.41616.415.33209.623.87255.623 1.57935v.62274c0 .04203 0 .1249.042.20777 0 .08348 0 .12491.041.20778l.083.20778h-1.745c-.042-.20778-.083-.54046-.125-.95542 0-.41555-.042-.7068-.125-.87315-.035-.11758-.1-.22455-.187-.31146-.087-.08692-.193-.15113-.311-.18696-.166-.08287-.333-.12491-.623-.12491l-.375-.04144h-.374v2.45191h-1.953zm-.956-7.14733c-.997 1.03889-1.496 2.24413-1.496 3.65714 0 1.45444.499 2.70111 1.538 3.74002.997 1.0389 2.244 1.5379 3.657 1.5379 1.454 0 2.66-.5405 3.657-1.5373.997-1.03891 1.537-2.28618 1.537-3.69919s-.498-2.61824-1.495-3.65713c-.998-1.03889-2.245-1.57935-3.699-1.57935-1.455-.04144-2.66.45759-3.699 1.53791zm8.104 8.18686c-1.205 1.2052-2.701 1.7871-4.405 1.7871-1.787 0-3.283-.6233-4.489-1.8286-1.205-1.20521-1.828-2.70109-1.828-4.48822 0-1.82857.665-3.36649 1.953-4.57112 1.247-1.163797 2.701-1.70426 4.322-1.70426 1.746 0 3.2.623334 4.447 1.87 1.205 1.20523 1.87 2.70172 1.87 4.44681.042 1.7457-.582 3.24158-1.87 4.48829z"/></g></svg>