<svg fill="none" height="30" viewBox="0 0 240 30" width="240" xmlns="http://www.w3.org/2000/svg" xmlns:xlink="http://www.w3.org/1999/xlink"><clipPath id="a"><path d="m0 0h240v29.5556h-240z"/></clipPath><g clip-path="url(#a)" fill="#000"><path d="m15.8333.452919v9.830481h-5.0555v-9.830481h-10.7778v29.096081h10.7778v-10.8475h5.0555v10.8475h10.7778v-29.096081z"/><path d="m46.5.452919v29.096081h21.8334v-7.5707h-11v-3.3898h9.8888v-7.5141h-9.8888v-3.16385h10.6111v-7.457631z"/><path d="m100.111 6.32862 2.445 11.52538h-5.1116zm-6.7777-5.875701-9.4444 29.152581h10.8889l1.0555-4.6893h8.3337l1 4.6893h11.833l-9.111-29.152581z"/><path d="m143.389 12.4868v-5.48021c.444-.0565.889-.0565 1.222-.0565 2.445 0 3.5.79096 3.5 2.59887 0 1.86444-1.333 2.99434-3.944 2.99434-.223-.0565-.5-.0565-.778-.0565zm-10.778 17.0622h10.778v-10.5085c.333-.0565.722-.0565 1-.0565 2.611 0 2.944 1.2429 3.389 4.4068l.278 2.1469c.166 1.2994.5 2.6553.833 4.0678h10.944c-.5-2.1469-.833-3.8983-1-5.1978l-.333-3.1073c-.5-4.1808-1.444-5.9887-5.278-6.6667 3.722-1.0169 5.667-3.2768 5.667-6.77965 0-5.81921-3.667-7.401131-11.556-7.401131h-14.666v29.096081z"/><path d="m185.833 20.2269v.226c0 1.9774.889 2.8814 2.723 2.8814 1.666 0 2.666-.8475 2.666-2.0904 0-.9605-.389-1.6384-1.111-2.0339-1.444-.7345-4.055-1.13-7.444-2.2599-4.611-1.4689-6.778-3.7853-6.778-7.85311 0-5.70622 4.555-9.1525473 12.889-9.1525473 7.611 0 11.611 2.8813573 11.611 8.0225973v.62147h-9.5c-.111-1.75141-.889-2.59887-2.5-2.59887-1.445 0-2.389.84746-2.389 1.9209 0 2.0339 2 1.97741 5.611 2.93786 6.667 1.8079 9.833 3.6723 9.833 8.9266 0 6.1581-4.833 10.1694-13.111 10.1694-8.389 0-12.833-3.2203-12.833-8.757 0-.339 0-.678.056-1.0735h10.277z"/><path d="m215.111.452919v7.740111h6.945v21.35597h11.055v-21.35597h6.889v-7.740111z"/></g></svg>