<svg fill="none" height="120" viewBox="0 0 240 120" width="240" xmlns="http://www.w3.org/2000/svg"><g fill="#000"><path d="m119.623 7.77711c22.256-.04454 42.089 14.03689 49.385 35.06269l3.004-1.0286 2.984-1.0292c-8.006-23.7553-30.27-39.76091-55.339-39.78198-25.0691-.021065-47.3601 15.94718-55.4053 39.69048l5.9567 2.2631c7.3802-20.9916 27.1638-35.07478 49.4146-35.17649z"/><path d="m78.8712 66.3285-7.202-1.0803c-3.6317 2.7571-7.7882 1.3271-9.1051-2.3353h17.4904v11.317h8.7037v-5.7924c.3031 1.3085.9554 2.5102 1.8873 3.4774.932.9672 2.1087 1.6637 3.405 2.0152 1.2963.3516 2.6636.3451 3.9565-.0187 1.2929-.3639 2.463-1.0714 3.386-2.0474.023 1.3458-.154 2.6876-.525 3.9813-1.2966 3.0864-5.6481 3.0864-7.9015 1.0292l-5.1442 6.6146c1.469 1.2755 3.1831 2.2373 5.0372 2.8265 1.854.5893 3.8089.7934 5.7447.6 3.4778-.3497 5.6898-.957 8.3338-3.3434 1.935-2.0688 3.035-4.7814 3.087-7.6137v-28.2212h-8.53v16.1326c.005.284-.047.5662-.152.83-.106.2638-.263.504-.462.7065-.199.2026-.437.3635-.699.4733-.2616.1098-.5429.1663-.8269.1663-.2841 0-.5654-.0565-.8274-.1663s-.4995-.2707-.6987-.4733c-.1991-.2025-.356-.4427-.4614-.7065s-.1573-.546-.1525-.83v-16.1326h-8.4575v-10.36h-8.673v18.6941c-2.7879-5.9778-8.0663-9.054-14.6713-8.1283-2.2161.391-4.2951 1.3433-6.0386 2.7661-1.7435 1.4229-3.0933 3.2688-3.9205 5.3616-1.6462-5.2573-5.5252-8.0452-10.9361-8.3335-5.7418 0-10.0109 2.8089-11.7293 8.3335-2.901-6.3678-8.6832-9.4548-15.5764-7.8905-1.8791.505-3.6209 1.4253-5.0971 2.693-1.4761 1.2677-2.64895 2.8505-3.43208 4.6318v-18.1285h-8.68322v36.8949h8.68382v-8.2313c1.04603 2.3187 2.74168 4.2844 4.88168 5.6594 2.14 1.3749 4.6326 2.1002 7.1762 2.0879 5.8647-.349 9.63-3.0864 12.0068-8.3335v8.8379h8.354v-15.937c.319-3.4776 5.607-3.5799 5.926 0v15.9166h8.3853v-8.3336c.824 2.0015 2.1182 3.775 3.773 5.1701 1.6549 1.3951 3.6216 2.3708 5.7336 2.8445 9.949.9461 13.8894-5.8954 13.9514-7.624zm-58.4791-.154c-1.0862 0-2.1479-.322-3.0512-.9252-.9032-.6032-1.6074-1.4606-2.0235-2.4638-.4161-1.0033-.5256-2.1074-.3145-3.1728s.7333-2.0443 1.5006-2.8131c.7672-.7687 1.7451-1.2928 2.8101-1.506 1.065-.2133 2.1693-.106 3.1734.3082 1.004.4141 1.8628 1.1166 2.4678 2.0186.605.9021.929 1.9632.9311 3.0493.0002 1.4581-.5782 2.8567-1.6082 3.8888-1.0301 1.0321-2.4275 1.6132-3.8856 1.616zm52.6765-6.6056h-10.6797c.3129-1.1773 1.0062-2.2182 1.9719-2.9608s2.1497-1.1452 3.3679-1.1452 2.4023.4026 3.368 1.1452 1.659 1.7835 1.9719 2.9608zm163.6484 19.8365c-.176.319-.289.5555-.371.7199-.097-.224-.203-.4437-.319-.6585l-1.595-3.1586h-1.316v4.455h.853v-3.7755l1.924 3.7755h.792l1.955-3.7243v3.7243h.864v-4.455h-1.162z"/><path d="m119.541 113.059c-22.0955.158-41.8881-13.6389-49.3844-34.4252l-3.0039 1.0286-2.9835 1.0292c8.348 23.3974 30.4969 39.0254 55.3398 39.0464 24.842.021 47.018-15.57 55.405-38.9543l-5.906-2.2528c-7.594 20.7616-27.36 34.5581-49.467 34.5281z"/><path d="m226.932 76.8433h2.202v3.9199h.895v-3.9199h2.201v-.535h-5.298z"/><path d="m229.71 72.8619c3.725 2.706 10.402.1131 10.289-1.6462l-.319-7.3049-.392.3395c-.339.3016-.743.5218-1.18.6439-.437.122-.897.1426-1.343.0603-.447-.0824-.868-.2656-1.233-.5356-.365-.2701-.664-.6198-.873-1.0227-.824-2.4689-.391-5.1442-.391-7.7575h5.308v-7.7678h-5.308v-5.2983h-8.365v13.488c-.662-1.6672-1.658-3.1815-2.927-4.45-1.268-1.2684-2.783-2.2643-4.45-2.9266-7.202-2.5519-14.064.4526-17.233 7.3766-.48-1.6653-1.325-3.2029-2.473-4.5018-1.147-1.2988-2.569-2.3264-4.163-3.0084-6.955-2.4388-13.642.4526-16.06 7.5102-1.914-4.434-4.671-6.7699-9.424-8.0657-2.933-.6048-5.984-.1899-8.648 1.1758-2.664 1.3658-4.782 3.6006-6.003 6.3344v-18.1285h-8.683v18.1285c-.955-2.0424-2.363-3.8404-4.116-5.2574-8.899-6.4509-20.577 0-20.824 10.8337v22.9946h8.653c0-2.3148-.267-11.3171-.267-11.3171l.957.4015c6.481 1.6461 13.086-1.6257 15.607-6.688v7.7991h8.684v-7.7991c1.077 2.547 2.934 4.687 5.304 6.1124 2.37 1.4253 5.13 2.0626 7.885 1.8203 2.737.1745 5.021-7.0582 5.031-5.0516v5.0516h5.803l8.436-.1336v-15.9166c0-3.3127 5.443-3.601 5.72-.2058.062 5.2164.052 11.0395.052 16.153h8.529v-8.3335c1.339 3.2797 3.904 5.9076 7.151 7.3248 6.883 2.2432 14.053 1.1424 16.739-7.2014l-7.253-1.1731c-1.667 2.5002-7.624 3.0353-9.507-1.9338h17.491c-.011 4.0428.072 7.1707 3.796 9.8768zm-95.394-6.5334c-1.087 0-2.149-.3222-3.052-.9259-.904-.6036-1.608-1.4617-2.024-2.4655-.416-1.0039-.525-2.1086-.313-3.1743s.736-2.0446 1.504-2.8129c.768-.7684 1.747-1.2916 2.813-1.5036s2.17-.1032 3.174.3126c1.004.4159 1.862 1.12 2.466 2.0235.603.9035.926 1.9656.926 3.0522-.008 1.4554-.592 2.8486-1.623 3.8758-1.031 1.0273-2.426 1.6052-3.881 1.6079zm32.069 0c-1.087 0-2.149-.3222-3.053-.9259-.903-.6036-1.607-1.4617-2.023-2.4655-.416-1.0039-.525-2.1086-.313-3.1743s.736-2.0446 1.504-2.8129c.768-.7684 1.747-1.2916 2.813-1.5036s2.17-.1032 3.174.3126c1.004.4159 1.862 1.12 2.466 2.0235.603.9035.926 1.9656.926 3.0522-.006 1.458-.589 2.8543-1.623 3.8824s-2.434 1.604-3.892 1.6013zm41.986-7.202c.33-1.1392 1.021-2.1404 1.97-2.8529.948-.7125 2.102-1.0978 3.288-1.0978s2.34.3853 3.288 1.0978 1.639 1.7137 1.969 2.8529h-10.534.021z"/></g></svg>