<svg fill="none" height="112" viewBox="0 0 240 112" width="240" xmlns="http://www.w3.org/2000/svg"><path clip-rule="evenodd" d="m115.918 57.0759h9.066c1.215 0 1.847.9986 1.401 2.2251l-3.617 9.9531c-.374 1.0311-1.52 1.8741-2.543 1.8741h-9.416zm22.264-13.5023-34.184-.5536-24.815 68.025h18.1984l9.6486-24.989h13.234c8 0 11.88.6259 14.887-8.6072l9.472-26.8527c2.31-6.5377.942-7.0225-6.441-7.0225zm27.547 13.5023h9.063c1.218 0 1.85.9986 1.405 2.2251l-3.618 9.9531c-.373 1.0311-1.519 1.8741-2.543 1.8741h-9.416zm22.265-13.5023-34.184-.5536-24.816 68.025h18.199l9.648-24.989h13.234c8 0 11.88.6259 14.887-8.6072l9.473-26.8527c2.309-6.5377.937-7.0225-6.441-7.0225zm27.079-.7417 24.927.492-4.871 13.8207h-17.336l-2.745 8.0356h11.373c3.812.0941 4.261 1.1252 2.658 6.118l-10.575 32.3588c-1.441 4.921-4.771 7.949-11.082 7.971h-51.197l6.078-19.0162 42.784-.8177 3.391-10.9951h-11.248c-5.28-.1519-6.096-3.1368-3.265-10.3655l6.333-18.8714c1.89-5.3474 6.937-8.8243 14.775-8.7302zm-155.4197-25.2413 6.5846-17.5906h-23.4863c-2.4607 10.1159-6.951 16.9032-15.0408 17.8077h-21.11539l-6.59541 18.0755h29.8194l-20.58367 57.6743c-3.75751 9.5845-3.6246 17.8045 9.50157 17.8045h52.7776l6.8613-18.0722h-36.1526c-8.6682 0-8.3952-2.6846-5.8052-11.9611l13.6255-36.4367c2.9241-7.4712 8.8765-9.5985 18.8343-9.2765h81.2788l7.123-17.8078zm7.6141 39.6796h7.181c1.4692 0 2.2344 1.212 1.6955 2.6954l-3.0354 8.3575c-.5389 1.4834-2.1806 2.6954-3.6534 2.6954h-7.1809c-1.4693 0-2.2308-1.212-1.692-2.6954l3.0319-8.3575c.5388-1.4834 2.1805-2.6954 3.6533-2.6954zm-5.1728-14.5877h28.0376c3.4414 0 5.1945 2.8365 3.8941 6.3025l-11.6893 31.1581c-1.3004 3.466-5.18 6.3025-8.6214 6.3025h-28.0377c-3.445 0-5.1944-2.8365-3.894-6.3025l11.6892-31.1581c1.2968-3.466 5.1801-6.3025 8.6215-6.3025z" fill="#000" fill-rule="evenodd"/></svg>