<svg fill="none" height="44" viewBox="0 0 240 44" width="240" xmlns="http://www.w3.org/2000/svg"><g fill="#000"><path d="m69.0801 1.46791v41.71449h1.8481v-41.71449z"/><path d="m208.324 12.2896c.158.4418.468.8129.875 1.0465.521.2812 1.109.4133 1.7.3817.559.0065 1.115-.0894 1.639-.2832.536-.2036 1.045-.4724 1.515-.8003.431-.2626.821-.586 1.159-.9603.414-.5368.723-1.1466.911-1.79765.258-.75738.391-1.55162.394-2.35167.008-.38772-.046-.77414-.16-1.14506-.087-.33048-.247-.63743-.468-.8988-.271-.27917-.605-.49015-.973-.61562-.456-.15635-.935-.23542-1.417-.23394-.601-.00177-1.197.11975-1.749.35706-.543.23852-1.056.54021-1.528.89881-.346.26654-.668.5632-.961.88649-.367.52732-.638 1.11494-.801 1.73605-.241.75275-.37 1.53683-.382 2.32703-.004.4951.079.987.246 1.4529zm2.292-4.27243c.139-.73977.451-1.43606.912-2.03154.156-.17111.346-.3077.558-.40099.213-.0933.442-.14124.674-.14076.214-.00881.427.03092.623.11622s.371.21395.51.37628c.335.45858.493 1.02272.444 1.5883-.005.92-.134 1.83519-.382 2.72102-.131.5325-.321 1.0487-.567 1.5391-.167.3149-.403.5883-.69.8003-.265.1677-.573.2534-.887.2462-.228.0192-.458-.0142-.672-.0974-.213-.0832-.405-.2141-.56-.3828-.323-.4633-.471-1.026-.419-1.5883.015-.92897.152-1.85202.407-2.74563zm8.279-2.10542h1.232l-1.306 6.74725c-.191 1.2283-.466 2.4419-.825 3.6321-.072.2277-.204.4318-.382.591-.137.1091-.306.1698-.481.1724-.181.0009-.356-.0648-.492-.1847-.18-.1794-.323-.3928-.419-.6279l-.284.0615c-.073.3201-.135.6156-.221.8988-.087.2832-.21.628-.382 1.0712.196.0977.409.1563.628.1724.311-.0096.616-.094.887-.2463.661-.3719 1.246-.8647 1.725-1.4528.58-.6773 1.043-1.4473 1.368-2.2778.491-1.3789.902-2.7848 1.232-4.2109l.998-4.33394h2.291c.07-.31489.164-.6237.283-.92343l-.086-.14775c-.29.04419-.582.07296-.875.08619-.652 0-1.059.06156-1.232 0h-.209c.148-.78799.32-1.5883.53-2.38861.058-.23151.145-.45486.259-.66487.072-.14238.183-.26174.32-.34474.133-.08163.287-.12428.443-.12313.232.01617.454.09726.641.23394.301.21475.556.48672.752.8003h.258c.123-.77778.296-1.546844.518-2.302416-.236-.0937891-.486-.14385913-.739-.14774879-.29-.01175239-.579.03428959-.851.13543579-.434.237649-.846.51373-1.232.824932-.61.436997-1.194.909807-1.749 1.415927-.299.27008-.552.58595-.752.93574-.148.33885-.256.69436-.32 1.05887-.032.16232-.073.32266-.123.48018-.312.13376-.633.24486-.961.33244-.407.11081-.69.20931-.887.28318l-.086.45556z"/><path d="m93.7207 26.2026h-1.6386c.0171.7037-.0532 1.4067-.2094 2.0931-.0171.0949-.0576.184-.1178.2592-.0602.0753-.1383.1343-.2272.1717-1.0053.2007-2.0317.2751-3.0554.2217-.5545 0-1.6263 0-3.2033-.1355v-2.5856c0-3.2258 0-5.4544.2094-6.6856l1.9589-.0862h1.7619c.9569-.0084 1.9128.0616 2.8583.2093.538.063 1.0622.2127 1.5523.4433.0781.0385.1395.1041.1725.1846.0776.3184.1148.6451.1109.9727 0 1.0343.0862 1.6991.0862 1.9946h1.5278c0-.8126 0-1.773.1601-2.8688.1602-1.0958.2218-1.9946.3573-2.6964l-.1725-.2709c-1.1821-.135-2.3707-.2049-3.5605-.2093l-8.9692.1724-6.5791-.1724v1.6006c.7386.0268 1.4749.0967 2.2053.2094.1865.0283.3661.0909.5298.1846.095.0837.1599.1961.1848.3202.1385.6681.2046 1.3492.1971 2.0315.1232 3.2997.1849 5.0481.1849 5.2205v7.7322c0 .6525-.0001 1.736-.0986 3.2504-.0986 1.5145-.1232 2.4625-.1602 2.6965-.0154.339-.1036.6707-.2587.9726-.0717.0936-.1707.1624-.2834.197-.8236.1602-1.6622.2303-2.501.2094v1.539c2.3039-.0862 3.9795-.1354 5.0267-.1354l7.3306.1354v-1.539c-.979-.0392-1.9543-.1421-2.9199-.3079-.1891-.055-.354-.1721-.4682-.3324-.2181-.6598-.3344-1.349-.345-2.0439 0-1.2312-.0985-3.2504-.0985-6.1562v-2.1054h1.4784c1.4536-.0344 2.9076.0438 4.3491.234.1296.0101.2557.047.3703.1085.1145.0615.215.1461.295.2485.2577.9123.3659 1.8604.3203 2.8072h1.6386zm10.3733 16.9665c.822 0 2.251.0246 4.288.0739 2.698.0738 4.164.0985 4.386.0985 1.589 0 2.76 0 3.524-.0985.373-.0259.744-.0836 1.108-.1724 0-.2339.074-.9357.173-2.1177l.468-3.7676s0-.2709.062-.6157h-1.577c-.234 1.2313-.481 2.3148-.727 3.2628-.059.2493-.168.484-.321.6895-.283.1441-.594.228-.911.2463-1.633.226-3.28.333-4.928.3201-.616 0-1.787 0-3.512-.1354 0-.3694 0-1.4283 0-3.1766 0-1.7484 0-3.5091 0-5.2821 0-3.3613 0-5.1589 0-5.3805 0-2.0931 0-3.8168.087-5.1835-.025-.7812.008-1.5631.098-2.3394.049-.1557.154-.2875.296-.3693.836-.2401 1.705-.3522 2.575-.3325v-1.6745c-2.033.0985-4.177.1355-6.431.1355-2.033 0-3.8321 0-5.4091-.1355v1.6376c.967-.0428 1.934.0821 2.8581.3694.132.078.233.2001.284.3447.181 1.3258.259 2.6637.234 4.0015v7.2767c0 2.6759-.025 4.966-.074 6.8703 0 1.9084-.111 3.0165-.173 3.3243-.01.0761-.04.1482-.086.2094-.146.1514-.317.2764-.5051.3693-.4362.2701-.8888.5128-1.3553.7265v.9603c2.4644-.1108 4.3364-.1723 5.5564-.1723zm16.091-5.1712c1.092 1.9339 2.74 3.4953 4.731 4.4817 2.245 1.0639 4.711 1.5828 7.195 1.5144 2.358.0444 4.702-.3739 6.899-1.2312 1.47-.6297 2.805-1.5369 3.93-2.6718 1.132-1.1303 2.02-2.4794 2.612-3.9646.829-2.071 1.247-4.283 1.232-6.5133.004-1.2724-.141-2.5409-.431-3.7799-.265-1.1017-.68-2.1621-1.232-3.152-1.386-2.2817-3.512-4.0199-6.024-4.9249-1.985-.6642-4.068-.9888-6.161-.9604-2.143-.021-4.275.3161-6.308.9973-1.552.5462-2.972 1.4148-4.164 2.5487-1.296 1.1969-2.307 2.6696-2.957 4.3093-.728 1.8964-1.079 3.9163-1.035 5.9469-.091 2.5704.5 5.1191 1.713 7.3875zm4.928-14.0239c.476-1.5335 1.452-2.8639 2.772-3.7799 1.388-.8708 3.007-1.3001 4.645-1.2312 1.324-.0556 2.641.2194 3.831.8003.991.5744 1.835 1.3711 2.464 2.327.763 1.1236 1.318 2.3746 1.639 3.6938.394 1.5655.585 3.1753.567 4.7895.054 2.2059-.306 4.4024-1.06 6.4763-.521 1.5213-1.524 2.8311-2.858 3.7307-1.268.7584-2.724 1.1465-4.201 1.1204-1.559.0232-3.09-.4044-4.411-1.2312-1.408-.9967-2.475-2.4025-3.055-4.0262-.875-2.2938-1.294-4.7363-1.232-7.1904-.021-1.8788.274-3.7476.874-5.5283zm24.32-4.7895c.122.076.216.1879.271.3201.184.9197.258 1.8578.222 2.795l.099 3.9399v6.9073l-.148 5.4544c-.015.7337-.077 1.4657-.185 2.1916-.014.1821-.069.3588-.16.5171-.079.1026-.193.1727-.321.197-.814.1332-1.638.1991-2.464.197v1.6376c1.651-.0862 3.45-.1355 5.384-.1355 2.169 0 4.325 0 6.444.1355v-1.6376c-.72.0037-1.44-.0333-2.156-.1108-.193-.026-.378-.0932-.542-.197-.104-.0678-.189-.161-.247-.2709-.134-.4388-.2-.8955-.197-1.3543 0-.3448-.074-1.7976-.123-4.3586 0-2.0808 0-4.0631 0-5.9223 0-1.2312 0-3.5213.111-7.0427 0-1.5637.074-2.5733.111-3.0165 1.521-.2513 3.077-.2095 4.583.1231.822.3124 1.531.8661 2.033 1.5883.566.8378.851 1.8339.813 2.8442.013 1.072-.255 2.1288-.776 3.0657-.428.8195-1.099 1.4862-1.922 1.9085-1.081.4028-2.239.5585-3.388.4555l-.21.6157c.452.3436.843.7597 1.158 1.2312.801 1.0712 1.775 2.561 2.92 4.4448l3.992 6.5748c.193.3323.342.6882.444 1.0589.985 0 1.971-.0739 2.969-.0739s2.242 0 4.152.0739v-1.6376c-.416.0205-.833-.0294-1.232-.1477-.234-.1093-.443-.2642-.616-.4556-.21-.2216-.789-.948-1.713-2.1793-.074-.0862-.48-.7018-1.232-1.8592l-2.895-4.297c-.074-.1108-.136-.2339-.21-.3571-.073-.1231-.295-.4678-.702-1.0588-.406-.591-.751-1.1451-1.059-1.6991 1.688-.5382 3.185-1.5513 4.312-2.9181.917-1.1739 1.412-2.6227 1.404-4.1123.032-1.1596-.328-2.2961-1.022-3.2259-.62-.8217-1.482-1.4288-2.464-1.736-1.424-.3372-2.887-.4862-4.349-.4433-1.011 0-2.292 0-3.832.0985-.924 0-2.045.0862-3.351.0862-1.528 0-2.711 0-3.548 0l-2.982-.0985v1.5144c.924.0039 1.843.1281 2.735.3694zm29.754-1.7976c-2.033 0-3.832 0-5.409-.1354v1.6375c.791.0083 1.581.0618 2.366.1601.166.0318.323.1036.456.2093.083.1136.142.2437.172.3817.136.9836.214 1.9744.234 2.9673v4.7772 7.7937c0 1.2313 0 2.6472-.16 4.137 0 1.0219-.111 1.6129-.148 1.7607-.028.1131-.088.2157-.172.2955-.16.1152-.347.1872-.542.2093-.198 0-.937.0739-2.243.1231v1.6376c1.577-.0862 3.364-.1355 5.372-.1355 2.304 0 4.46 0 6.493.1355v-1.6376c-.746.0096-1.491-.0315-2.23-.1231-.205-.0254-.4-.1016-.567-.2216-.122-.102-.208-.24-.246-.394-.166-.8098-.232-1.6367-.198-2.4625v-3.4229-7.5105c0-.2299.025-1.8715.074-4.925 0-.8988 0-1.5021.062-1.8222.004-.417.066-.8315.185-1.2313.038-.1207.111-.2277.209-.3078.153-.0996.325-.1667.505-.197.748-.1013 1.501-.1507 2.255-.1477v-1.7238c-2.033.0985-4.177.1355-6.456.1355zm14.427 25.8561 5.532.1354c2.173.0476 4.341-.2305 6.431-.8249 1.803-.5798 3.477-1.5039 4.928-2.7211 1.531-1.2714 2.756-2.8703 3.585-4.6787.896-1.9967 1.342-4.1655 1.306-6.3532.018-1.7539-.278-3.4969-.874-5.1466-.362-.9512-.882-1.8339-1.54-2.6102-.698-.8352-1.531-1.547-2.465-2.1054-1.075-.6039-2.246-1.0202-3.462-1.2313-1.744-.3062-3.514-.4423-5.285-.4063-.949 0-2.23 0-3.819.0739-2.193.0616-3.696.0985-4.485.0985l-6.776-.1354v1.5021c1.355.1723 2.131.2832 2.341.3447.174.0278.336.1047.468.2216.069.0737.119.1622.148.2586.179 1.1112.262 2.2358.246 3.3613.062 3.1643.099 5.5652.099 7.2151v2.9796c0 3.7429-.074 6.4476-.222 8.1138-.394.2987-.806.5741-1.232.825l-.517.2955v.8988l5.642-.1355zm1.614-9.4806v-4.3216c0-4.8758.062-8.1919.185-9.9485 1.052-.1639 2.114-.2503 3.178-.2585 1.926-.0831 3.852.1456 5.705.6772 1.214.4177 2.289 1.1635 3.104 2.1546.838 1.0189 1.444 2.2079 1.775 3.4844.368 1.3396.55 2.7233.542 4.1124.015 1.4624-.168 2.9202-.542 4.334-.31 1.2331-.822 2.4065-1.516 3.4721-.542.8491-1.235 1.5919-2.045 2.1916-.746.5258-1.581.9136-2.464 1.145-1.437.3637-2.916.5376-4.398.5171-1.115-.0066-2.227-.1013-3.327-.2832-.123-1.1819-.185-3.6198-.185-7.3135zm21.154 9.4806 4.3.1354v-1.539c-.9.0387-1.799-.0737-2.661-.3325-.105-.0657-.189-.1593-.244-.2702-.054-.1109-.077-.2348-.064-.3577.187-1.0996.501-2.1738.936-3.2012l.813-2.2286h9.622l1.663 4.0508c.226.4823.371.9979.432 1.5267.007.1075-.017.2147-.069.3088-.053.094-.132.1707-.227.2207-.853.1947-1.725.2897-2.6.2832v1.539l6.542-.1354 5.175.1354v-1.539l-.813-.0862c-.369-.0088-.737-.0542-1.097-.1355-.139-.0503-.269-.1253-.382-.2216-.142-.1432-.259-.3098-.345-.4925l-.751-1.7114-1.158-2.5487-8.279-19.5028h-2.662l-1.638 4.2354-4.928 12.0046c-.912 2.2655-1.54 3.7923-1.861 4.5679-.702 1.6376-1.133 2.5856-1.232 2.8442-.116.2043-.262.3909-.431.5541-.14.1266-.309.2156-.493.2585-.594.1092-1.195.1751-1.799.197v1.5391l4.276-.1355zm7.836-19.626 3.991 9.6037c-1.133 0-2.464 0-3.843 0-1.38 0-2.81 0-3.992 0l3.844-9.6406z"/><path d="m77.7166 2.20651c.1083.04954.1986.13123.2587.23394.0629.161.0963.33199.0986.50481v1.96998 3.48441c-.0321.5043-.0321 1.01013 0 1.51443.045.33032.145.65072.2957.94802.1876.3364.4338.6366.7269.8865.3694.2818.7868.4946 1.232.628.7234.2164 1.4749.3243 2.23.3201.6029.0094 1.2041-.0652 1.7864-.2216.4855-.1292.9415-.3508 1.343-.6526.3506-.2573.6443-.5842.8624-.9604.2157-.3805.3578-.7982.4189-1.23121.0622-.48184.0951-.96703.0985-1.45286v-1.92074c0-.54174 0-1.23124 0-2.22854.0227-.53263.0804-1.0632.1725-1.5883.0225-.09514.0796-.17852.1602-.23394.29-.11188.6023-.15405.9117-.12312v-.62794l-1.7125.04925h-.2095-1.6879v.64025c.3845-.01591.7685.03833 1.1335.16006.0398.01748.0756.04287.1053.07462.0296.03175.0525.0692.0672.11007.0955.40303.1328.81764.1109 1.23124v2.46248 1.60061c.0501.76136-.0418 1.52539-.2711 2.25317-.1987.4128-.5218.7529-.924.9727-.5336.2693-1.1277.3966-1.7248.3694-.526.0006-1.0463-.1085-1.5278-.3202-.3683-.1479-.6853-.4005-.9117-.7264-.2254-.37256-.3526-.79619-.3696-1.23124 0-.22162 0-.81262 0-1.77299v-2.67179c-.0448-.71421-.0284-1.43096.0493-2.14236.0044-.05294.0199-.10439.0453-.15103.0255-.04664.0604-.08746.1025-.11984.3458-.12983.7163-.18033 1.0842-.14775v-.64025h-.2957-1.0595-1.1088-2.4641v.64025l1.0226.11081zm13.9097 10.18239h2.0575 1.7002v-.6403h-.1602c-.1602 0-.4066 0-.7392-.0615-.0911-.0113-.1791-.0406-.2587-.0862-.0502-.0378-.0887-.089-.1109-.1478-.0625-.3661-.0955-.7367-.0986-1.1081 0-.87417 0-1.71141 0-2.52403v-3.90303c3.0801 3.76759 5.4661 6.59126 7.1586 8.47096l1.342.197h.099c-.074-.7388-.099-2.8442-.099-6.31629 0-.44325 0-1.13275 0-2.05618-.037-.61736-.004-1.23699.099-1.84686.004-.0257.014-.05012.029-.07145.015-.02132.034-.03899.057-.05167.37-.11573.759-.16165 1.146-.13544v-.65256c-.825 0-1.478 0-1.996 0-.517 0-1.121 0-1.749 0v.65256c.416-.03211.835.01809 1.232.14775.083.11005.131.24347.135.38169 0 .49249.099 2.14235.099 4.92496v1.80992c-.731-.75516-1.6429-1.7894-2.7353-3.10272-1.5278-1.82224-2.8296-3.43517-3.9056-4.83878h-.7146-1.1334c-.3204 0-.8009 0-1.4662 0v.65256c.3342.01532.6673.04819.998.0985.0899.02306.174.06503.2464.12312.056.0767.094.1651.1109.25856.0161.2501.0161.50096 0 .75106v2.26548 2.46248 1.6868c0 .76341-.037 1.24351-.1109 1.44051-.0052.1057-.0393.2079-.0986.2955-.0364.0435-.0829.0773-.1355.0985-.3508.0528-.7048.0816-1.0595.0862v.6649zm18.0247-10.8842c-.85 0-1.602 0-2.255 0v.6895c.326.00357.65.02411.974.06156.073.01466.141.04867.197.0985.029.04665.054.09615.074.14775 0 .17237 0 .57868.086 1.23124v2.00692 3.22585c0 .52533-.025 1.10398-.074 1.73608v.7264c-.013.0472-.038.0899-.074.1231-.062.0524-.14.0827-.222.0862-.306.0374-.615.058-.924.0616v.6895h2.243 2.722v-.6895c-.517 0-.825 0-.936 0-.084-.0321-.16-.0826-.222-.1478-.057-.0416-.097-.1031-.111-.1723-.065-.3448-.09-.6961-.074-1.0466v-1.42824-3.13966c0-.0985 0-.788 0-2.06849 0-.38168 0-.64024 0-.77568-.002-.16215.019-.32378.062-.48018.014-.04983.044-.09338.086-.12313.062-.045.134-.07455.21-.08618.314-.04315.631-.06372.948-.06157v-.71412c-.85 0-1.761 0-2.71 0zm12.493 10.9457c.32-.8988.924-2.46245 1.823-4.55556l1.047-2.46248.555-1.30511c.219-.62601.518-1.22173.887-1.77299.285-.10115.584-.15521.887-.16006v-.73875h-1.688-1.996v.6895h.863c.093-.01796.189-.01796.283 0 .046.01415.086.04482.111.08619.022.06795.022.14136 0 .20931.006.06141.006.12327 0 .18468-.119.41727-.259.82822-.419 1.23124l-.555 1.47749-1.749 4.29703-1.947-4.72796c-.003-.04509-.003-.09035 0-.13544l-.32-.78799c-.229-.47085-.403-.96666-.517-1.47749-.002-.07272.024-.14326.074-.197.064-.06072.146-.09952.234-.11081.312-.05923.63-.084.948-.07388v-.66487h-2.809-2.279v.6895c.33-.01135.659.03448.973.13544.2.1943.356.42951.456.68949.197.394.739 1.63755 1.602 3.69372l1.121 2.65948c.407.97272.825 2.01922 1.232 3.11502zm11.273-.16h2.562 1.232c.478.0108.955-.0098 1.43-.0616l.098-.0985c.008-.8481.065-1.695.173-2.53634h-.567c-.052.48054-.151.95474-.296 1.41594-.006.0281-.018.0547-.035.078s-.038.0428-.063.0574c-.28.106-.576.1602-.875.1601-.481 0-.998 0-1.552 0-.555 0-1.072 0-1.503 0 0-.2709 0-.5787 0-.9481v-3.17657c.41-.02792.821-.02792 1.232 0 .465-.00889.931.01993 1.392.08618.069.00377.136.02354.196.05774.059.0342.111.08188.149.13926.116.35718.153.73507.111 1.10812h.64v-1.71143-1.71142h-.628c.01.33194-.027.66368-.111.98499-.015.06884-.054.12997-.111.17237-.163.02688-.329.02688-.493 0h-1.232c-.394 0-.751 0-1.109 0v-1.62523c-.005-.75224.028-1.50427.099-2.25318.475-.04455.952-.0651 1.429-.06156.503-.00129 1.004.0275 1.503.08619.215.00587.427.04748.629.12312.045.04244.075.09869.086.16006.055.37494.08.75378.074 1.13275h.603c0-.67719.074-1.04656.087-1.13275l.148-1.12042v-.11082h-.259-1.134-1.589-2.378-2.846v.61562c.382-.00539.764.04015 1.134.13544.051.02518.091.0693.111.12313.09.34947.128.71058.11 1.07117v1.52674 3.50904c0 .41041-.024 1.06297-.073 1.95766 0 .4925 0 .8373-.074 1.0589-.237.1804-.493.3333-.764.4555v.4187zm10.287-10.05926c.053.03005.092.07824.111.13543.079.38472.112.77728.099 1.16968v1.64986 2.91805l-.074 2.29014c-.004.3091-.029.6176-.074.9234.014.0691.014.1402 0 .2093-.038.0383-.085.0677-.136.0862-.346.0571-.696.0859-1.047.0862v.6895h2.255 2.698v-.6895c-.3.0189-.6.0189-.899 0-.084-.0125-.163-.0418-.235-.0862-.039-.0304-.073-.068-.098-.1108-.057-.1834-.086-.3743-.086-.5664 0-.1477 0-.7634 0-1.83454 0-.87418 0-1.71142 0-2.46248 0-.4925 0-1.47749 0-2.95498 0-.66487 0-1.08349 0-1.23124.248-.03934.499-.05992.751-.06156.414-.02366.829.01368 1.232.11081.339.13993.633.36986.85.66487.242.36406.362.79482.345 1.23124 0 .43249-.115.85714-.332 1.23124-.177.34395-.457.62387-.801.80031-.452.17156-.936.2389-1.417.197l-.086.25856c.184.14842.346.32258.48.51712.333.45556.739 1.07118 1.232 1.87148l1.676 2.75797c.08.1393.142.2883.185.4433h1.232 1.749v-.6895c-.166.0038-.332-.0169-.493-.0616-.097-.0494-.185-.1162-.258-.197-.099-.0985-.333-.394-.727-.9111l-.518-.77569-1.232-1.80993-.086-.14775s-.123-.197-.296-.44324c-.172-.24625-.308-.48019-.443-.71413.708-.22441 1.333-.65274 1.799-1.23124.386-.48628.595-1.09021.591-1.71142.013-.48706-.139-.96419-.431-1.35437-.257-.35052-.62-.60945-1.035-.73874-.603-.13304-1.219-.19094-1.836-.17237-.431 0-.961 0-1.602 0h-1.404-1.491-1.232v.64024c.388-.00018.773.05369 1.146.16006zm20.193.77568c.03-.33585.083-.66916.16-.99731l-.061-.18468c-.429-.20742-.885-.35253-1.355-.43094-.528-.099-1.065-.14847-1.602-.14775-.526.00049-1.051.05829-1.565.17238-.483.10878-.942.30489-1.355.57868-.42.28894-.756.68406-.973 1.14505-.248.50131-.375 1.05378-.37 1.61293-.008.39986.064.79734.21 1.16968.117.35494.325.67318.603.92343.313.27562.683.47759 1.085.591.308.08618.924.23393 1.86.43093.475.08902.938.23366 1.38.43093.246.12537.448.32299.579.56638.13.26397.193.55557.185.84955.006.36542-.083.72622-.259 1.04652-.202.3241-.499.5779-.85.7265-.42.18-.874.2682-1.331.2585-.544.0051-1.08-.1216-1.564-.3693-.413-.1842-.767-.4781-1.023-.8496-.06-.4654-.089-.93435-.086-1.40361h-.653c.022.90941-.061 1.81821-.247 2.70871.526.2663 1.08.4728 1.651.6156.557.1296 1.128.1916 1.7.1847.77.0228 1.536-.1069 2.255-.3817.846-.3425 1.553-.958 2.008-1.7483.292-.54022.436-1.1473.419-1.7607.004-.34622-.046-.69093-.148-1.02193-.082-.27473-.211-.53307-.382-.76337-.17-.21308-.379-.39261-.616-.52943-.322-.17414-.666-.30654-1.022-.394l-1.06-.197c-.53-.08618-.961-.17237-1.232-.23393-.317-.06415-.621-.18066-.899-.34475-.201-.12037-.363-.29548-.468-.50481-.124-.26116-.184-.54836-.173-.83724.005-.2343.059-.46495.159-.67704s.243-.4009.42-.5542c.463-.38004 1.053-.56938 1.651-.52944.461-.00698.918.08104 1.343.25856.328.12915.617.3413.838.61562.058.40783.087.8193.086 1.23124h.653c0-.52943 0-.96036.074-1.23124zm6.949-1.52674c-.85 0-1.614 0-2.267 0v.68949c.329.00328.658.02382.986.06157.068.01715.132.05098.184.0985.039.04081.065.09225.074.14774.061.40777.094.8191.099 1.23125v2.00692 3.25047 1.73608c0 .4186 0 .6648-.062.7264-.012.0472-.038.0899-.074.1231-.062.0524-.14.0827-.221.0862-.311.0377-.624.0583-.937.0616v.6895h2.243 2.722v-.6895c-.517 0-.825 0-.936 0-.083-.0184-.163-.0517-.234-.0985-.054-.0429-.089-.1045-.099-.1724-.078-.343-.107-.6954-.086-1.0465v-4.6172c0-.0985 0-.788 0-2.06849 0-.38168 0-.64024 0-.77568.002-.17177.031-.34215.086-.50481.005-.0257.014-.05012.029-.07145.015-.02132.035-.03899.058-.05167.062-.045.133-.07455.209-.08619.31-.04345.623-.06403.936-.06156v-.6895c-.85 0-1.749 0-2.698 0zm10.891 10.81032c.702 0 1.553 0 2.563.0738v-.6402c-.379.0092-.756-.0364-1.121-.1354-.059-.0291-.11-.0706-.15-.1217-.041-.0511-.07-.1104-.084-.1738-.085-.6737-.113-1.35318-.087-2.03158v-4.67871c0-1.23124 0-1.96999 0-2.14236h1.121c.515-.00745 1.029.01311 1.541.06156.081-.01806.165-.01806.246 0 .061.10061.095.21504.098.33243.063.38705.1.77779.111 1.16968h.641c0-1.0958 0-1.67448 0-1.71142.009-.28021.034-.55971.074-.83725l-.074-.07387h-.727-2.636-3.154-2.588-.776l-.074.07387c0 .27088 0 .51713.086.73875.087.22162 0 .73874 0 1.80992h.641c.006-.41315.047-.82505.123-1.23124.006-.09615.035-.18937.087-.27087.097-.02304.198-.02304.295 0h1.491 1.121v2.14236 4.67871c.021.67428-.008 1.34912-.086 2.01922-.017.0658-.048.1273-.09.1804-.043.053-.096.0965-.157.1274-.359.1075-.734.1533-1.108.1355v.6402c.961-.0492 1.811-.0739 2.55-.0739zm12.813-7.85534c-.342-.66831-.721-1.3177-1.133-1.94536-.175-.27803-.377-.53788-.604-.77568-.212-.1805-.444-.33738-.69-.46788l-.875.20931-1.65.33244v.65256c.229-.02593.46-.02593.689 0 .202.14904.388.31818.555.50481.458.5352.87 1.10767 1.232 1.71142.567.86187 1.084 1.74836 1.577 2.64717.144.22564.244.4762.296.73874v1.47749 1.51442c.007.1605-.023.3205-.087.4679-.051.0669-.126.1111-.209.1231-.347.045-.697.0697-1.047.0739v.6895h2.378 2.698v-.6895c-.346.0021-.692-.0185-1.035-.0616-.091-.0252-.172-.0766-.234-.1477-.075-.1712-.117-.355-.124-.5418-.025-.4839-.025-.96889 0-1.45284v-1.31743c-.018-.19247-.018-.38621 0-.57868.049-.20743.128-.40657.235-.591.16-.33243.616-1.07118 1.355-2.21623.739-1.14506 1.404-2.14236 2.045-2.99192v-.34475h-1.232c-.074.14775-.246.46788-.53.97268-.825 1.45287-1.318 2.32705-1.491 2.61024l-.985 1.60061c-.123-.27087-.493-.99731-1.097-2.1793z"/><path d="m44.612 36.152v-10.6749h9.8439v-7.0427h-9.8439v-9.97303h10.8049v3.86613h7.1335v-10.84727h-28.5586v6.98114h2.6859v27.69063h-2.6735v7.0427h13.1827v-7.0427z"/><path d="m30.2834 27.4222v-18.96114h2.6488v-6.98113h-13.2074v6.98113h2.575v16.60944c0 6.9565-.8131 10.3055-5.8152 10.3055s-5.8029-3.3859-5.8029-10.3055v-16.60944h2.5503v-6.98113h-13.232v6.98113h2.62423v18.96114c0 4.1493 0 7.5475 1.95893 10.5886 2.1807 3.4598 6.16014 5.6514 11.90144 5.6514 10.1766 0 13.7988-5.2943 13.7988-16.24z"/><path d="m69.0801 1.46791v41.71449h1.8481v-41.71449z"/><path d="m208.324 12.2896c.158.4418.468.8129.875 1.0465.521.2812 1.109.4133 1.7.3817.559.0065 1.115-.0894 1.639-.2832.536-.2036 1.045-.4724 1.515-.8003.431-.2626.821-.586 1.159-.9603.414-.5368.723-1.1466.911-1.79765.258-.75738.391-1.55162.394-2.35167.008-.38772-.046-.77414-.16-1.14506-.087-.33048-.247-.63743-.468-.8988-.271-.27917-.605-.49015-.973-.61562-.456-.15635-.935-.23542-1.417-.23394-.601-.00177-1.197.11975-1.749.35706-.543.23852-1.056.54021-1.528.89881-.346.26654-.668.5632-.961.88649-.367.52732-.638 1.11494-.801 1.73605-.241.75275-.37 1.53683-.382 2.32703-.004.4951.079.987.246 1.4529zm2.292-4.27243c.139-.73977.451-1.43606.912-2.03154.156-.17111.346-.3077.558-.40099.213-.0933.442-.14124.674-.14076.214-.00881.427.03092.623.11622s.371.21395.51.37628c.335.45858.493 1.02272.444 1.5883-.005.92-.134 1.83519-.382 2.72102-.131.5325-.321 1.0487-.567 1.5391-.167.3149-.403.5883-.69.8003-.265.1677-.573.2534-.887.2462-.228.0192-.458-.0142-.672-.0974-.213-.0832-.405-.2141-.56-.3828-.323-.4633-.471-1.026-.419-1.5883.015-.92897.152-1.85202.407-2.74563zm8.279-2.10542h1.232l-1.306 6.74725c-.191 1.2283-.466 2.4419-.825 3.6321-.072.2277-.204.4318-.382.591-.137.1091-.306.1698-.481.1724-.181.0009-.356-.0648-.492-.1847-.18-.1794-.323-.3928-.419-.6279l-.284.0615c-.073.3201-.135.6156-.221.8988-.087.2832-.21.628-.382 1.0712.196.0977.409.1563.628.1724.311-.0096.616-.094.887-.2463.661-.3719 1.246-.8647 1.725-1.4528.58-.6773 1.043-1.4473 1.368-2.2778.491-1.3789.902-2.7848 1.232-4.2109l.998-4.33394h2.291c.07-.31489.164-.6237.283-.92343l-.086-.14775c-.29.04419-.582.07296-.875.08619-.652 0-1.059.06156-1.232 0h-.209c.148-.78799.32-1.5883.53-2.38861.058-.23151.145-.45486.259-.66487.072-.14238.183-.26174.32-.34474.133-.08163.287-.12428.443-.12313.232.01617.454.09726.641.23394.301.21475.556.48672.752.8003h.258c.123-.77778.296-1.546844.518-2.302416-.236-.0937891-.486-.14385913-.739-.14774879-.29-.01175239-.579.03428959-.851.13543579-.434.237649-.846.51373-1.232.824932-.61.436997-1.194.909807-1.749 1.415927-.299.27008-.552.58595-.752.93574-.148.33885-.256.69436-.32 1.05887-.032.16232-.073.32266-.123.48018-.312.13376-.633.24486-.961.33244-.407.11081-.69.20931-.887.28318l-.086.45556z"/><path d="m93.7207 26.2026h-1.6386c.0171.7037-.0532 1.4067-.2094 2.0931-.0171.0949-.0576.184-.1178.2592-.0602.0753-.1383.1343-.2272.1717-1.0053.2007-2.0317.2751-3.0554.2217-.5545 0-1.6263 0-3.2033-.1355v-2.5856c0-3.2258 0-5.4544.2094-6.6856l1.9589-.0862h1.7619c.9569-.0084 1.9128.0616 2.8583.2093.538.063 1.0622.2127 1.5523.4433.0781.0385.1395.1041.1725.1846.0776.3184.1148.6451.1109.9727 0 1.0343.0862 1.6991.0862 1.9946h1.5278c0-.8126 0-1.773.1601-2.8688.1602-1.0958.2218-1.9946.3573-2.6964l-.1725-.2709c-1.1821-.135-2.3707-.2049-3.5605-.2093l-8.9692.1724-6.5791-.1724v1.6006c.7386.0268 1.4749.0967 2.2053.2094.1865.0283.3661.0909.5298.1846.095.0837.1599.1961.1848.3202.1385.6681.2046 1.3492.1971 2.0315.1232 3.2997.1849 5.0481.1849 5.2205v7.7322c0 .6525-.0001 1.736-.0986 3.2504-.0986 1.5145-.1232 2.4625-.1602 2.6965-.0154.339-.1036.6707-.2587.9726-.0717.0936-.1707.1624-.2834.197-.8236.1602-1.6622.2303-2.501.2094v1.539c2.3039-.0862 3.9795-.1354 5.0267-.1354l7.3306.1354v-1.539c-.979-.0392-1.9543-.1421-2.9199-.3079-.1891-.055-.354-.1721-.4682-.3324-.2181-.6598-.3344-1.349-.345-2.0439 0-1.2312-.0985-3.2504-.0985-6.1562v-2.1054h1.4784c1.4536-.0344 2.9076.0438 4.3491.234.1296.0101.2557.047.3703.1085.1145.0615.215.1461.295.2485.2577.9123.3659 1.8604.3203 2.8072h1.6386zm10.3733 16.9665c.822 0 2.251.0246 4.288.0739 2.698.0738 4.164.0985 4.386.0985 1.589 0 2.76 0 3.524-.0985.373-.0259.744-.0836 1.108-.1724 0-.2339.074-.9357.173-2.1177l.468-3.7676s0-.2709.062-.6157h-1.577c-.234 1.2313-.481 2.3148-.727 3.2628-.059.2493-.168.484-.321.6895-.283.1441-.594.228-.911.2463-1.633.226-3.28.333-4.928.3201-.616 0-1.787 0-3.512-.1354 0-.3694 0-1.4283 0-3.1766 0-1.7484 0-3.5091 0-5.2821 0-3.3613 0-5.1589 0-5.3805 0-2.0931 0-3.8168.087-5.1835-.025-.7812.008-1.5631.098-2.3394.049-.1557.154-.2875.296-.3693.836-.2401 1.705-.3522 2.575-.3325v-1.6745c-2.033.0985-4.177.1355-6.431.1355-2.033 0-3.8321 0-5.4091-.1355v1.6376c.967-.0428 1.934.0821 2.8581.3694.132.078.233.2001.284.3447.181 1.3258.259 2.6637.234 4.0015v7.2767c0 2.6759-.025 4.966-.074 6.8703 0 1.9084-.111 3.0165-.173 3.3243-.01.0761-.04.1482-.086.2094-.146.1514-.317.2764-.5051.3693-.4362.2701-.8888.5128-1.3553.7265v.9603c2.4644-.1108 4.3364-.1723 5.5564-.1723zm16.091-5.1712c1.092 1.9339 2.74 3.4953 4.731 4.4817 2.245 1.0639 4.711 1.5828 7.195 1.5144 2.358.0444 4.702-.3739 6.899-1.2312 1.47-.6297 2.805-1.5369 3.93-2.6718 1.132-1.1303 2.02-2.4794 2.612-3.9646.829-2.071 1.247-4.283 1.232-6.5133.004-1.2724-.141-2.5409-.431-3.7799-.265-1.1017-.68-2.1621-1.232-3.152-1.386-2.2817-3.512-4.0199-6.024-4.9249-1.985-.6642-4.068-.9888-6.161-.9604-2.143-.021-4.275.3161-6.308.9973-1.552.5462-2.972 1.4148-4.164 2.5487-1.296 1.1969-2.307 2.6696-2.957 4.3093-.728 1.8964-1.079 3.9163-1.035 5.9469-.091 2.5704.5 5.1191 1.713 7.3875zm4.928-14.0239c.476-1.5335 1.452-2.8639 2.772-3.7799 1.388-.8708 3.007-1.3001 4.645-1.2312 1.324-.0556 2.641.2194 3.831.8003.991.5744 1.835 1.3711 2.464 2.327.763 1.1236 1.318 2.3746 1.639 3.6938.394 1.5655.585 3.1753.567 4.7895.054 2.2059-.306 4.4024-1.06 6.4763-.521 1.5213-1.524 2.8311-2.858 3.7307-1.268.7584-2.724 1.1465-4.201 1.1204-1.559.0232-3.09-.4044-4.411-1.2312-1.408-.9967-2.475-2.4025-3.055-4.0262-.875-2.2938-1.294-4.7363-1.232-7.1904-.021-1.8788.274-3.7476.874-5.5283zm24.32-4.7895c.122.076.216.1879.271.3201.184.9197.258 1.8578.222 2.795l.099 3.9399v6.9073l-.148 5.4544c-.015.7337-.077 1.4657-.185 2.1916-.014.1821-.069.3588-.16.5171-.079.1026-.193.1727-.321.197-.814.1332-1.638.1991-2.464.197v1.6376c1.651-.0862 3.45-.1355 5.384-.1355 2.169 0 4.325 0 6.444.1355v-1.6376c-.72.0037-1.44-.0333-2.156-.1108-.193-.026-.378-.0932-.542-.197-.104-.0678-.189-.161-.247-.2709-.134-.4388-.2-.8955-.197-1.3543 0-.3448-.074-1.7976-.123-4.3586 0-2.0808 0-4.0631 0-5.9223 0-1.2312 0-3.5213.111-7.0427 0-1.5637.074-2.5733.111-3.0165 1.521-.2513 3.077-.2095 4.583.1231.822.3124 1.531.8661 2.033 1.5883.566.8378.851 1.8339.813 2.8442.013 1.072-.255 2.1288-.776 3.0657-.428.8195-1.099 1.4862-1.922 1.9085-1.081.4028-2.239.5585-3.388.4555l-.21.6157c.452.3436.843.7597 1.158 1.2312.801 1.0712 1.775 2.561 2.92 4.4448l3.992 6.5748c.193.3323.342.6882.444 1.0589.985 0 1.971-.0739 2.969-.0739s2.242 0 4.152.0739v-1.6376c-.416.0205-.833-.0294-1.232-.1477-.234-.1093-.443-.2642-.616-.4556-.21-.2216-.789-.948-1.713-2.1793-.074-.0862-.48-.7018-1.232-1.8592l-2.895-4.297c-.074-.1108-.136-.2339-.21-.3571-.073-.1231-.295-.4678-.702-1.0588-.406-.591-.751-1.1451-1.059-1.6991 1.688-.5382 3.185-1.5513 4.312-2.9181.917-1.1739 1.412-2.6227 1.404-4.1123.032-1.1596-.328-2.2961-1.022-3.2259-.62-.8217-1.482-1.4288-2.464-1.736-1.424-.3372-2.887-.4862-4.349-.4433-1.011 0-2.292 0-3.832.0985-.924 0-2.045.0862-3.351.0862-1.528 0-2.711 0-3.548 0l-2.982-.0985v1.5144c.924.0039 1.843.1281 2.735.3694zm29.754-1.7976c-2.033 0-3.832 0-5.409-.1354v1.6375c.791.0083 1.581.0618 2.366.1601.166.0318.323.1036.456.2093.083.1136.142.2437.172.3817.136.9836.214 1.9744.234 2.9673v4.7772 7.7937c0 1.2313 0 2.6472-.16 4.137 0 1.0219-.111 1.6129-.148 1.7607-.028.1131-.088.2157-.172.2955-.16.1152-.347.1872-.542.2093-.198 0-.937.0739-2.243.1231v1.6376c1.577-.0862 3.364-.1355 5.372-.1355 2.304 0 4.46 0 6.493.1355v-1.6376c-.746.0096-1.491-.0315-2.23-.1231-.205-.0254-.4-.1016-.567-.2216-.122-.102-.208-.24-.246-.394-.166-.8098-.232-1.6367-.198-2.4625v-3.4229-7.5105c0-.2299.025-1.8715.074-4.925 0-.8988 0-1.5021.062-1.8222.004-.417.066-.8315.185-1.2313.038-.1207.111-.2277.209-.3078.153-.0996.325-.1667.505-.197.748-.1013 1.501-.1507 2.255-.1477v-1.7238c-2.033.0985-4.177.1355-6.456.1355zm14.427 25.8561 5.532.1354c2.173.0476 4.341-.2305 6.431-.8249 1.803-.5798 3.477-1.5039 4.928-2.7211 1.531-1.2714 2.756-2.8703 3.585-4.6787.896-1.9967 1.342-4.1655 1.306-6.3532.018-1.7539-.278-3.4969-.874-5.1466-.362-.9512-.882-1.8339-1.54-2.6102-.698-.8352-1.531-1.547-2.465-2.1054-1.075-.6039-2.246-1.0202-3.462-1.2313-1.744-.3062-3.514-.4423-5.285-.4063-.949 0-2.23 0-3.819.0739-2.193.0616-3.696.0985-4.485.0985l-6.776-.1354v1.5021c1.355.1723 2.131.2832 2.341.3447.174.0278.336.1047.468.2216.069.0737.119.1622.148.2586.179 1.1112.262 2.2358.246 3.3613.062 3.1643.099 5.5652.099 7.2151v2.9796c0 3.7429-.074 6.4476-.222 8.1138-.394.2987-.806.5741-1.232.825l-.517.2955v.8988l5.642-.1355zm1.614-9.4806v-4.3216c0-4.8758.062-8.1919.185-9.9485 1.052-.1639 2.114-.2503 3.178-.2585 1.926-.0831 3.852.1456 5.705.6772 1.214.4177 2.289 1.1635 3.104 2.1546.838 1.0189 1.444 2.2079 1.775 3.4844.368 1.3396.55 2.7233.542 4.1124.015 1.4624-.168 2.9202-.542 4.334-.31 1.2331-.822 2.4065-1.516 3.4721-.542.8491-1.235 1.5919-2.045 2.1916-.746.5258-1.581.9136-2.464 1.145-1.437.3637-2.916.5376-4.398.5171-1.115-.0066-2.227-.1013-3.327-.2832-.123-1.1819-.185-3.6198-.185-7.3135zm21.154 9.4806 4.3.1354v-1.539c-.9.0387-1.799-.0737-2.661-.3325-.105-.0657-.189-.1593-.244-.2702-.054-.1109-.077-.2348-.064-.3577.187-1.0996.501-2.1738.936-3.2012l.813-2.2286h9.622l1.663 4.0508c.226.4823.371.9979.432 1.5267.007.1075-.017.2147-.069.3088-.053.094-.132.1707-.227.2207-.853.1947-1.725.2897-2.6.2832v1.539l6.542-.1354 5.175.1354v-1.539l-.813-.0862c-.369-.0088-.737-.0542-1.097-.1355-.139-.0503-.269-.1253-.382-.2216-.142-.1432-.259-.3098-.345-.4925l-.751-1.7114-1.158-2.5487-8.279-19.5028h-2.662l-1.638 4.2354-4.928 12.0046c-.912 2.2655-1.54 3.7923-1.861 4.5679-.702 1.6376-1.133 2.5856-1.232 2.8442-.116.2043-.262.3909-.431.5541-.14.1266-.309.2156-.493.2585-.594.1092-1.195.1751-1.799.197v1.5391l4.276-.1355zm7.836-19.626 3.991 9.6037c-1.133 0-2.464 0-3.843 0-1.38 0-2.81 0-3.992 0l3.844-9.6406z"/><path d="m77.7166 2.20651c.1083.04954.1986.13123.2587.23394.0629.161.0963.33199.0986.50481v1.96998 3.48441c-.0321.5043-.0321 1.01013 0 1.51443.045.33032.145.65072.2957.94802.1876.3364.4338.6366.7269.8865.3694.2818.7868.4946 1.232.628.7234.2164 1.4749.3243 2.23.3201.6029.0094 1.2041-.0652 1.7864-.2216.4855-.1292.9415-.3508 1.343-.6526.3506-.2573.6443-.5842.8624-.9604.2157-.3805.3578-.7982.4189-1.23121.0622-.48184.0951-.96703.0985-1.45286v-1.92074c0-.54174 0-1.23124 0-2.22854.0227-.53263.0804-1.0632.1725-1.5883.0225-.09514.0796-.17852.1602-.23394.29-.11188.6023-.15405.9117-.12312v-.62794l-1.7125.04925h-.2095-1.6879v.64025c.3845-.01591.7685.03833 1.1335.16006.0398.01748.0756.04287.1053.07462.0296.03175.0525.0692.0672.11007.0955.40303.1328.81764.1109 1.23124v2.46248 1.60061c.0501.76136-.0418 1.52539-.2711 2.25317-.1987.4128-.5218.7529-.924.9727-.5336.2693-1.1277.3966-1.7248.3694-.526.0006-1.0463-.1085-1.5278-.3202-.3683-.1479-.6853-.4005-.9117-.7264-.2254-.37256-.3526-.79619-.3696-1.23124 0-.22162 0-.81262 0-1.77299v-2.67179c-.0448-.71421-.0284-1.43096.0493-2.14236.0044-.05294.0199-.10439.0453-.15103.0255-.04664.0604-.08746.1025-.11984.3458-.12983.7163-.18033 1.0842-.14775v-.64025h-.2957-1.0595-1.1088-2.4641v.64025l1.0226.11081zm13.9097 10.18239h2.0575 1.7002v-.6403h-.1602c-.1602 0-.4066 0-.7392-.0615-.0911-.0113-.1791-.0406-.2587-.0862-.0502-.0378-.0887-.089-.1109-.1478-.0625-.3661-.0955-.7367-.0986-1.1081 0-.87417 0-1.71141 0-2.52403v-3.90303c3.0801 3.76759 5.4661 6.59126 7.1586 8.47096l1.342.197h.099c-.074-.7388-.099-2.8442-.099-6.31629 0-.44325 0-1.13275 0-2.05618-.037-.61736-.004-1.23699.099-1.84686.004-.0257.014-.05012.029-.07145.015-.02132.034-.03899.057-.05167.37-.11573.759-.16165 1.146-.13544v-.65256c-.825 0-1.478 0-1.996 0-.517 0-1.121 0-1.749 0v.65256c.416-.03211.835.01809 1.232.14775.083.11005.131.24347.135.38169 0 .49249.099 2.14235.099 4.92496v1.80992c-.731-.75516-1.6429-1.7894-2.7353-3.10272-1.5278-1.82224-2.8296-3.43517-3.9056-4.83878h-.7146-1.1334c-.3204 0-.8009 0-1.4662 0v.65256c.3342.01532.6673.04819.998.0985.0899.02306.174.06503.2464.12312.056.0767.094.1651.1109.25856.0161.2501.0161.50096 0 .75106v2.26548 2.46248 1.6868c0 .76341-.037 1.24351-.1109 1.44051-.0052.1057-.0393.2079-.0986.2955-.0364.0435-.0829.0773-.1355.0985-.3508.0528-.7048.0816-1.0595.0862v.6649zm18.0247-10.8842c-.85 0-1.602 0-2.255 0v.6895c.326.00357.65.02411.974.06156.073.01466.141.04867.197.0985.029.04665.054.09615.074.14775 0 .17237 0 .57868.086 1.23124v2.00692 3.22585c0 .52533-.025 1.10398-.074 1.73608v.7264c-.013.0472-.038.0899-.074.1231-.062.0524-.14.0827-.222.0862-.306.0374-.615.058-.924.0616v.6895h2.243 2.722v-.6895c-.517 0-.825 0-.936 0-.084-.0321-.16-.0826-.222-.1478-.057-.0416-.097-.1031-.111-.1723-.065-.3448-.09-.6961-.074-1.0466v-1.42824-3.13966c0-.0985 0-.788 0-2.06849 0-.38168 0-.64024 0-.77568-.002-.16215.019-.32378.062-.48018.014-.04983.044-.09338.086-.12313.062-.045.134-.07455.21-.08618.314-.04315.631-.06372.948-.06157v-.71412c-.85 0-1.761 0-2.71 0zm12.493 10.9457c.32-.8988.924-2.46245 1.823-4.55556l1.047-2.46248.555-1.30511c.219-.62601.518-1.22173.887-1.77299.285-.10115.584-.15521.887-.16006v-.73875h-1.688-1.996v.6895h.863c.093-.01796.189-.01796.283 0 .046.01415.086.04482.111.08619.022.06795.022.14136 0 .20931.006.06141.006.12327 0 .18468-.119.41727-.259.82822-.419 1.23124l-.555 1.47749-1.749 4.29703-1.947-4.72796c-.003-.04509-.003-.09035 0-.13544l-.32-.78799c-.229-.47085-.403-.96666-.517-1.47749-.002-.07272.024-.14326.074-.197.064-.06072.146-.09952.234-.11081.312-.05923.63-.084.948-.07388v-.66487h-2.809-2.279v.6895c.33-.01135.659.03448.973.13544.2.1943.356.42951.456.68949.197.394.739 1.63755 1.602 3.69372l1.121 2.65948c.407.97272.825 2.01922 1.232 3.11502zm11.273-.16h2.562 1.232c.478.0108.955-.0098 1.43-.0616l.098-.0985c.008-.8481.065-1.695.173-2.53634h-.567c-.052.48054-.151.95474-.296 1.41594-.006.0281-.018.0547-.035.078s-.038.0428-.063.0574c-.28.106-.576.1602-.875.1601-.481 0-.998 0-1.552 0-.555 0-1.072 0-1.503 0 0-.2709 0-.5787 0-.9481v-3.17657c.41-.02792.821-.02792 1.232 0 .465-.00889.931.01993 1.392.08618.069.00377.136.02354.196.05774.059.0342.111.08188.149.13926.116.35718.153.73507.111 1.10812h.64v-1.71143-1.71142h-.628c.01.33194-.027.66368-.111.98499-.015.06884-.054.12997-.111.17237-.163.02688-.329.02688-.493 0h-1.232c-.394 0-.751 0-1.109 0v-1.62523c-.005-.75224.028-1.50427.099-2.25318.475-.04455.952-.0651 1.429-.06156.503-.00129 1.004.0275 1.503.08619.215.00587.427.04748.629.12312.045.04244.075.09869.086.16006.055.37494.08.75378.074 1.13275h.603c0-.67719.074-1.04656.087-1.13275l.148-1.12042v-.11082h-.259-1.134-1.589-2.378-2.846v.61562c.382-.00539.764.04015 1.134.13544.051.02518.091.0693.111.12313.09.34947.128.71058.11 1.07117v1.52674 3.50904c0 .41041-.024 1.06297-.073 1.95766 0 .4925 0 .8373-.074 1.0589-.237.1804-.493.3333-.764.4555v.4187zm10.287-10.05926c.053.03005.092.07824.111.13543.079.38472.112.77728.099 1.16968v1.64986 2.91805l-.074 2.29014c-.004.3091-.029.6176-.074.9234.014.0691.014.1402 0 .2093-.038.0383-.085.0677-.136.0862-.346.0571-.696.0859-1.047.0862v.6895h2.255 2.698v-.6895c-.3.0189-.6.0189-.899 0-.084-.0125-.163-.0418-.235-.0862-.039-.0304-.073-.068-.098-.1108-.057-.1834-.086-.3743-.086-.5664 0-.1477 0-.7634 0-1.83454 0-.87418 0-1.71142 0-2.46248 0-.4925 0-1.47749 0-2.95498 0-.66487 0-1.08349 0-1.23124.248-.03934.499-.05992.751-.06156.414-.02366.829.01368 1.232.11081.339.13993.633.36986.85.66487.242.36406.362.79482.345 1.23124 0 .43249-.115.85714-.332 1.23124-.177.34395-.457.62387-.801.80031-.452.17156-.936.2389-1.417.197l-.086.25856c.184.14842.346.32258.48.51712.333.45556.739 1.07118 1.232 1.87148l1.676 2.75797c.08.1393.142.2883.185.4433h1.232 1.749v-.6895c-.166.0038-.332-.0169-.493-.0616-.097-.0494-.185-.1162-.258-.197-.099-.0985-.333-.394-.727-.9111l-.518-.77569-1.232-1.80993-.086-.14775s-.123-.197-.296-.44324c-.172-.24625-.308-.48019-.443-.71413.708-.22441 1.333-.65274 1.799-1.23124.386-.48628.595-1.09021.591-1.71142.013-.48706-.139-.96419-.431-1.35437-.257-.35052-.62-.60945-1.035-.73874-.603-.13304-1.219-.19094-1.836-.17237-.431 0-.961 0-1.602 0h-1.404-1.491-1.232v.64024c.388-.00018.773.05369 1.146.16006zm20.193.77568c.03-.33585.083-.66916.16-.99731l-.061-.18468c-.429-.20742-.885-.35253-1.355-.43094-.528-.099-1.065-.14847-1.602-.14775-.526.00049-1.051.05829-1.565.17238-.483.10878-.942.30489-1.355.57868-.42.28894-.756.68406-.973 1.14505-.248.50131-.375 1.05378-.37 1.61293-.008.39986.064.79734.21 1.16968.117.35494.325.67318.603.92343.313.27562.683.47759 1.085.591.308.08618.924.23393 1.86.43093.475.08902.938.23366 1.38.43093.246.12537.448.32299.579.56638.13.26397.193.55557.185.84955.006.36542-.083.72622-.259 1.04652-.202.3241-.499.5779-.85.7265-.42.18-.874.2682-1.331.2585-.544.0051-1.08-.1216-1.564-.3693-.413-.1842-.767-.4781-1.023-.8496-.06-.4654-.089-.93435-.086-1.40361h-.653c.022.90941-.061 1.81821-.247 2.70871.526.2663 1.08.4728 1.651.6156.557.1296 1.128.1916 1.7.1847.77.0228 1.536-.1069 2.255-.3817.846-.3425 1.553-.958 2.008-1.7483.292-.54022.436-1.1473.419-1.7607.004-.34622-.046-.69093-.148-1.02193-.082-.27473-.211-.53307-.382-.76337-.17-.21308-.379-.39261-.616-.52943-.322-.17414-.666-.30654-1.022-.394l-1.06-.197c-.53-.08618-.961-.17237-1.232-.23393-.317-.06415-.621-.18066-.899-.34475-.201-.12037-.363-.29548-.468-.50481-.124-.26116-.184-.54836-.173-.83724.005-.2343.059-.46495.159-.67704s.243-.4009.42-.5542c.463-.38004 1.053-.56938 1.651-.52944.461-.00698.918.08104 1.343.25856.328.12915.617.3413.838.61562.058.40783.087.8193.086 1.23124h.653c0-.52943 0-.96036.074-1.23124zm6.949-1.52674c-.85 0-1.614 0-2.267 0v.68949c.329.00328.658.02382.986.06157.068.01715.132.05098.184.0985.039.04081.065.09225.074.14774.061.40777.094.8191.099 1.23125v2.00692 3.25047 1.73608c0 .4186 0 .6648-.062.7264-.012.0472-.038.0899-.074.1231-.062.0524-.14.0827-.221.0862-.311.0377-.624.0583-.937.0616v.6895h2.243 2.722v-.6895c-.517 0-.825 0-.936 0-.083-.0184-.163-.0517-.234-.0985-.054-.0429-.089-.1045-.099-.1724-.078-.343-.107-.6954-.086-1.0465v-4.6172c0-.0985 0-.788 0-2.06849 0-.38168 0-.64024 0-.77568.002-.17177.031-.34215.086-.50481.005-.0257.014-.05012.029-.07145.015-.02132.035-.03899.058-.05167.062-.045.133-.07455.209-.08619.31-.04345.623-.06403.936-.06156v-.6895c-.85 0-1.749 0-2.698 0zm10.891 10.81032c.702 0 1.553 0 2.563.0738v-.6402c-.379.0092-.756-.0364-1.121-.1354-.059-.0291-.11-.0706-.15-.1217-.041-.0511-.07-.1104-.084-.1738-.085-.6737-.113-1.35318-.087-2.03158v-4.67871c0-1.23124 0-1.96999 0-2.14236h1.121c.515-.00745 1.029.01311 1.541.06156.081-.01806.165-.01806.246 0 .061.10061.095.21504.098.33243.063.38705.1.77779.111 1.16968h.641c0-1.0958 0-1.67448 0-1.71142.009-.28021.034-.55971.074-.83725l-.074-.07387h-.727-2.636-3.154-2.588-.776l-.074.07387c0 .27088 0 .51713.086.73875.087.22162 0 .73874 0 1.80992h.641c.006-.41315.047-.82505.123-1.23124.006-.09615.035-.18937.087-.27087.097-.02304.198-.02304.295 0h1.491 1.121v2.14236 4.67871c.021.67428-.008 1.34912-.086 2.01922-.017.0658-.048.1273-.09.1804-.043.053-.096.0965-.157.1274-.359.1075-.734.1533-1.108.1355v.6402c.961-.0492 1.811-.0739 2.55-.0739zm12.813-7.85534c-.342-.66831-.721-1.3177-1.133-1.94536-.175-.27803-.377-.53788-.604-.77568-.212-.1805-.444-.33738-.69-.46788l-.875.20931-1.65.33244v.65256c.229-.02593.46-.02593.689 0 .202.14904.388.31818.555.50481.458.5352.87 1.10767 1.232 1.71142.567.86187 1.084 1.74836 1.577 2.64717.144.22564.244.4762.296.73874v1.47749 1.51442c.007.1605-.023.3205-.087.4679-.051.0669-.126.1111-.209.1231-.347.045-.697.0697-1.047.0739v.6895h2.378 2.698v-.6895c-.346.0021-.692-.0185-1.035-.0616-.091-.0252-.172-.0766-.234-.1477-.075-.1712-.117-.355-.124-.5418-.025-.4839-.025-.96889 0-1.45284v-1.31743c-.018-.19247-.018-.38621 0-.57868.049-.20743.128-.40657.235-.591.16-.33243.616-1.07118 1.355-2.21623.739-1.14506 1.404-2.14236 2.045-2.99192v-.34475h-1.232c-.074.14775-.246.46788-.53.97268-.825 1.45287-1.318 2.32705-1.491 2.61024l-.985 1.60061c-.123-.27087-.493-.99731-1.097-2.1793z"/><path d="m44.612 36.152v-10.6749h9.8439v-7.0427h-9.8439v-9.97303h10.8049v3.86613h7.1335v-10.84727h-28.5586v6.98114h2.6859v27.69063h-2.6735v7.0427h13.1827v-7.0427z"/><path d="m30.2834 27.4222v-18.96114h2.6488v-6.98113h-13.2074v6.98113h2.575v16.60944c0 6.9565-.8131 10.3055-5.8152 10.3055s-5.8029-3.3859-5.8029-10.3055v-16.60944h2.5503v-6.98113h-13.232v6.98113h2.62423v18.96114c0 4.1493 0 7.5475 1.95893 10.5886 2.1807 3.4598 6.16014 5.6514 11.90144 5.6514 10.1766 0 13.7988-5.2943 13.7988-16.24z"/></g></svg>