<svg fill="none" height="87" viewBox="0 0 240 87" width="240" xmlns="http://www.w3.org/2000/svg"><g fill="#000"><path d="m118.535 6.42897c31.294 0 57.094 24.64533 60.917 56.53683h5.494c.159-.3981.199-.8361.119-1.3139l-.915-5.574c-.199-1.3139-1.314-2.1898-2.469-1.9509-.079 0-.119.0398-.159.0398-.12-.5176-.239-1.0352-.398-1.513.04 0 .119-.0398.159-.0398 1.115-.438 1.632-1.7518 1.194-2.9861l-1.831-5.2954c-.438-1.2342-1.672-1.9111-2.747-1.4731-.04 0-.08.0398-.12.0398-.199-.4778-.398-.9555-.637-1.4333.04 0 .08-.0398.12-.0398.995-.6371 1.314-2.0306.716-3.1852l-2.667-4.8972c-.637-1.1546-1.951-1.5528-2.946-.9556-.04 0-.04.0399-.08.0399-.279-.438-.558-.876-.836-1.2741 0 0 .04-.0398.079-.0398.876-.7963.956-2.2695.16-3.2648l-3.424-4.3c-.797-.9954-2.19-1.1944-3.066-.3982 0 0 0 0-.04.0398-.358-.3583-.677-.7564-1.035-1.1148 0 0 0 0 .04-.0398.756-.9555.557-2.3889-.359-3.225l-4.101-3.6231c-.955-.8361-2.349-.7565-3.065.1593-.398-.3186-.797-.5973-1.235-.9158.558-1.075.16-2.4685-.915-3.1055l-4.619-2.82686c-1.075-.63704-2.389-.31852-2.986.67685-.438-.23889-.916-.43797-1.354-.67685.359-1.15463-.278-2.4287-1.433-2.86666l-5.017-1.91111c-1.154-.43796-2.388.11945-2.826 1.19445-.478-.15926-.956-.27871-1.474-.39815.16-1.19444-.676-2.30925-1.871-2.50832l-5.255-.99537c-1.195-.238886-2.349.51759-2.588 1.71203-.518-.03982-.996-.11944-1.513-.15926-.04-1.19444-1.035-2.149988-2.27-2.149988h-5.335c-1.234 0-2.19.955548-2.269 2.149988-.518.03982-.996.07963-1.513.15926-.239-1.15463-1.354-1.950916-2.588-1.71203l-5.256.99537c-1.194.23889-2.03 1.3537-1.871 2.54814-.478.11944-.995.2787-1.473.39814-.438-1.11481-1.6725-1.6324-2.8271-1.19444l-5.0166 1.91111c-1.1547.43796-1.7917 1.71203-1.3936 2.86665-.4777.23889-.9157.43796-1.3537.67685-.5972-1.03518-1.9111-1.3537-2.9861-.67685l-4.6185 2.82685c-1.075.637-1.4731 2.0305-.9157 3.1055-.3982.2787-.7963.5973-1.1944.9158-.7565-.9556-2.15-1.0352-3.1056-.1593l-4.1009 3.6232c-.9556.8361-1.1148 2.3092-.3583 3.2249 0 0 0 0 .0398.0399-.3584.3583-.7167.7166-1.0352 1.1148 0 0 0-.0399-.0398-.0399-.8759-.7962-2.2695-.5972-3.0658.3982l-3.424 4.3c-.7963.9954-.7167 2.4685.1592 3.2648.0399 0 .0399.0398.0797.0398-.2787.438-.5574.8361-.8361 1.2741-.0399 0-.0399-.0398-.0797-.0398-.9953-.5973-2.349-.1991-2.9463.9555l-2.6675 4.8972c-.6371 1.1546-.3186 2.5482.7166 3.1852.0398 0 .0796.0398.1195.0398-.1991.4778-.438.9556-.6371 1.4333-.0398-.0398-.0796-.0398-.1194-.0796-1.1148-.438-2.3491.2389-2.7472 1.4731l-1.8315 5.2954c-.438 1.2343.1194 2.588 1.2342 2.9861.0399.0398.1195.0398.1593.0398-.1194.5176-.2389 1.0352-.3981 1.513-.0399 0-.1195-.0398-.1593-.0398-1.1546-.1991-2.2694.6768-2.4685 1.9509l-.9158 5.5342c-.0796.4778-.0398.9158.1195 1.3139h5.4944c3.5833-31.8119 29.3833-56.49703 60.6776-56.49703z"/><path d="m118.535 6.42899c-31.2943 0-57.0943 24.64531-60.9165 56.53691h3.8222c3.7824-29.662 27.9101-52.5156 57.0543-52.5156 29.184 0 53.272 22.8536 57.095 52.5156h3.822c-3.783-31.8518-29.622-56.53691-60.877-56.53691z"/><path d="m105.954 40.3113-.956 3.9416c-1.075 4.3398-2.15 12.1435-2.628 18.7129h14.214v-48.335c-4.141 6.5694-8.361 17.0805-10.63 25.6805z"/><path d="m131.16 40.3743c-2.269-8.5999-6.49-19.0712-10.67-25.6804v48.335h14.214c-.478-6.5694-1.513-14.4129-2.628-18.7129z"/><path d="m147.401 40.3113c-4.818-10.0333-12.184-19.2305-22.177-25.3222 3.822 6.5695 8.122 17.7176 9.834 25.3222l.916 3.9416c.955 3.7028 2.07 11.9843 2.548 18.713h15.249c-.717-6.5297-2.349-13.2982-4.619-18.713z"/><path d="m163.645 40.3112c-5.295-8.7592-15.806-19.0314-28.945-23.2119 6.888 5.9324 12.741 13.6962 16.961 23.2119l1.632 3.9417c1.951 4.937 3.544 11.387 4.3 18.1157.08.1991.16.3981.239.5972h13.935c-.876-6.45-2.866-12.9398-5.892-18.7129z"/><path d="m101.972 40.3113c1.712-7.6046 6.052-18.7129 9.874-25.3222-9.993 6.0519-17.359 15.2889-22.1766 25.3222l-1.7518 3.9416c-2.2695 5.4547-3.9019 12.2232-4.6185 18.713h15.249c.4778-6.7287 1.5929-15.0102 2.5479-18.713z"/><path d="m85.4092 40.3112c4.2203-9.5157 10.0731-17.2795 16.9608-23.2119-13.0988 4.1805-23.6497 14.4527-28.9451 23.2119l-2.2694 3.9417c-2.9861 5.8129-4.9768 12.2629-5.8528 18.7129h14.0944c.7167-6.9278 2.3889-13.6166 4.3797-18.7129z"/><path d="m1.20116 85.2621-.716663-14.0148h2.946283l.23889 10.7898 5.45462-10.7898h3.26481l.1593 10.7898 5.6934-10.7898h2.8269l-7.7639 14.0148h-3.42404l-.03981-10.4315-5.25554 10.4315z"/><path d="m24.9706 83.1519c2.6278 0 4.1407-1.9509 4.8972-4.8574.5176-2.0306.9157-4.8972-2.3491-4.8972-2.4685 0-4.1009 1.8315-4.8574 4.8176-.6768 2.7073-.4379 4.937 2.3093 4.937zm7.9629-4.8972c-1.1546 4.3398-3.5435 7.286-8.5601 7.286-4.5787 0-6.0121-2.4685-4.738-7.3258 1.4732-5.6139 4.8176-7.2463 8.5204-7.2463 3.5833.0398 6.3305 1.3537 4.7777 7.2861z"/><path d="m38.7464 73.7556-.9157 3.5435h3.424c1.8315 0 2.588-.3981 2.9463-1.7916.2389-.8361.5176-1.7519-2.0305-1.7519zm-5.8129 11.5065 3.7027-13.975h6.8482c3.1055 0 4.3398 1.1945 3.5435 4.2204-.5176 1.9509-1.7519 3.4639-3.7028 3.9018l1.712 5.8528h-3.1055l-1.513-5.4546h-3.2648l-1.4333 5.4546z"/><path d="m55.5881 85.2621h-3.5435c-3.3047 0-5.4148-.6769-4.1009-5.6537l2.1898-8.3213h2.787l-2.0306 7.6843c-.7166 2.7472-1.0351 3.9814 1.9908 3.9814h3.3046z"/><path d="m62.914 73.7158-2.3888 9.1176h3.225c2.2296 0 3.3842-.5176 4.4592-4.5389.8361-3.225.637-4.5787-2.0306-4.5787zm-5.8527 11.5463 3.7027-13.975h6.0519c4.3398 0 5.6139 2.4685 4.3398 7.2861-.7963 3.0657-2.7074 6.7287-7.963 6.7287h-6.1314z"/><path d="m81.8658 82.7935h4.101c.9555 0 1.9111-.2787 2.2694-1.6324.2787-1.1148-.1593-1.6722-1.3935-1.6722h-4.1009zm2.3889-9.0379-.8361 3.225h4.0611c1.1148 0 1.9111-.3185 2.2694-1.5926.2788-1.075-.199-1.6324-1.3935-1.6324zm-5.8129 11.5065 3.7027-14.0148h6.8084c2.2296.0398 4.8175.2389 3.862 3.862-.3584 1.3139-1.2741 2.3889-2.787 3.1454.8361.4777 1.6722 1.3138 1.1944 3.0657-.8361 3.225-3.0259 3.9018-5.4944 3.9018h-7.2861z"/><path d="m98.9861 71.2473-3.663 14.0148h-2.9065l3.663-14.0148z"/><path d="m111.169 73.676h-4.578c-1.951 0-3.544 1.0352-4.619 5.0963-.995 3.7823.319 4.1009 2.19 4.1009h4.579l-.637 2.4286h-4.699c-4.2597 0-5.5338-2.5083-4.4189-6.7286 1.1149-4.2602 3.3439-7.2463 8.2019-7.2463h4.618z"/><path d="m114.713 79.0908-2.946-7.8435h3.105l1.871 5.375 4.738-5.375h3.186l-7.127 7.8435-1.633 6.1713h-2.827z"/><path d="m134.66 73.6768h-4.579c-1.951 0-3.543 1.0352-4.618 5.0963-.995 3.7824.318 4.1009 2.19 4.1009h4.578l-.637 2.4287h-4.698c-4.26 0-5.534-2.5083-4.419-6.7287 1.115-4.2601 3.344-7.2462 8.202-7.2462h4.618z"/><path d="m142.464 85.2621h-3.544c-3.264 0-5.414-.6769-4.101-5.6537l2.19-8.3213h2.787l-2.03 7.6843c-.717 2.7472-.996 3.9814 1.99 3.9814h3.305z"/><path d="m157.036 73.7158h-4.579c-1.99 0-3.304 1.075-4.021 3.2648h7.724l-.637 2.4287h-7.724c-.677 2.5482.119 3.4241 2.23 3.4241h4.578l-.637 2.4287h-4.698c-4.26 0-5.534-2.5083-4.419-6.7287 1.114-4.2602 3.344-7.2463 8.201-7.2463h4.619z"/><path d="m169.379 73.7556-.916 3.5435h3.424c1.831 0 2.588-.3981 2.946-1.7916.239-.8361.518-1.7519-2.03-1.7519zm-5.813 11.5065 3.702-13.975h6.848c3.106 0 4.34 1.1945 3.544 4.2204-.518 1.9509-1.752 3.4639-3.703 3.9018l1.712 5.8528h-3.105l-1.513-5.4546h-3.265l-1.433 5.4546z"/><path d="m190.48 73.7158h-4.578c-1.991 0-3.305 1.075-4.022 3.2648h7.724l-.637 2.4287h-7.684c-.677 2.5482.12 3.4241 2.23 3.4241h4.578l-.637 2.4287h-4.698c-4.26 0-5.534-2.5083-4.419-6.7287 1.115-4.2602 3.344-7.2463 8.202-7.2463h4.618z"/><path d="m198.682 85.2621h-3.543c-3.305 0-5.415-.6769-4.061-5.6537l2.189-8.3213h2.748l-2.031 7.6843c-.717 2.7472-1.035 3.9814 1.991 3.9814h3.304z"/><path d="m206.764 71.2473-3.662 14.0148h-2.907l3.663-14.0148z"/><path d="m218.948 73.7158h-4.579c-1.991 0-3.305 1.075-4.021 3.2648h7.724l-.637 2.4287h-7.724c-.677 2.5482.119 3.4241 2.229 3.4241h4.579l-.637 2.4287h-4.698c-4.26 0-5.534-2.5083-4.419-6.7287 1.114-4.2602 3.344-7.2463 8.201-7.2463h4.619z"/><path d="m218.231 85.2621 1.712-6.4102c1.832-6.9278 4.3-7.5648 8.521-7.5648h4.26l-.637 2.4287h-4.499c-2.19 0-3.504.7565-4.38 3.4241h7.963l-.637 2.3889h-7.963l-1.513 5.7333z"/><path d="m236.307 72.4019h.318c.399 0 .717-.1593.717-.5176 0-.2787-.199-.5574-.717-.5574-.159 0-.238 0-.318.0398zm0 1.712h-.478v-3.0657c.239-.0398.478-.0796.836-.0796.438 0 .717.0796.916.2389.159.1194.279.3583.279.637 0 .3981-.239.637-.558.7565v.0398c.239.0398.438.2787.478.7565.08.4777.159.6768.199.7564h-.478c-.079-.0796-.159-.3981-.199-.7962-.079-.3982-.239-.5575-.637-.5575h-.318v1.3139zm.478-3.9416c-1.155 0-2.11 1.0352-2.11 2.3491 0 1.3138.955 2.349 2.11 2.349 1.154 0 2.11-1.0352 2.11-2.3092 0-1.3537-.916-2.3889-2.11-2.3889zm.04-.438c1.433 0 2.588 1.2343 2.588 2.7472 0 1.5528-1.155 2.7871-2.588 2.7871-1.434 0-2.588-1.1945-2.588-2.7871-.04-1.5129 1.114-2.7472 2.588-2.7472z"/></g></svg>